<svg width="15" height="15" viewBox="0 0 15 15" fill="none" xmlns="http://www.w3.org/2000/svg">
<path fill-rule="evenodd" clip-rule="evenodd" d="M11.1089 0.629179C10.961 0.392925 10.7432 0.208647 10.4857 0.101998C10.2282 -0.00465121 9.94386 -0.0283664 9.67225 0.0341546L7.74459 0.476938C7.54704 0.522344 7.34176 0.522344 7.14421 0.476938L5.21654 0.0341546C4.94494 -0.0283664 4.6606 -0.00465121 4.4031 0.101998C4.14561 0.208647 3.92777 0.392925 3.77991 0.629179L2.72924 2.30597C2.62202 2.4775 2.47729 2.62224 2.30575 2.73052L0.628963 3.7812C0.393117 3.92892 0.20911 4.14641 0.102484 4.40347C-0.0041427 4.66052 -0.0280993 4.9444 0.0339392 5.21569L0.476723 7.14549C0.521964 7.3427 0.521964 7.54759 0.476723 7.7448L0.0339392 9.67354C-0.0283404 9.94499 -0.00450437 10.2291 0.102133 10.4864C0.208771 10.7436 0.392913 10.9613 0.628963 11.1091L2.30575 12.1598C2.47729 12.267 2.62202 12.4117 2.73031 12.5833L3.78098 14.26C4.08332 14.7436 4.66011 14.9827 5.21654 14.8551L7.14421 14.4123C7.34176 14.3669 7.54704 14.3669 7.74459 14.4123L9.67332 14.8551C9.94477 14.9174 10.2289 14.8935 10.4862 14.7869C10.7434 14.6802 10.9611 14.4961 11.1089 14.26L12.1596 12.5833C12.2668 12.4117 12.4115 12.267 12.583 12.1598L14.2609 11.1091C14.497 10.9611 14.681 10.7432 14.7875 10.4857C14.8939 10.2282 14.9175 9.94396 14.8549 9.67247L14.4131 7.7448C14.3677 7.54725 14.3677 7.34197 14.4131 7.14442L14.8559 5.21569C14.9183 4.94435 14.8946 4.66032 14.7882 4.40306C14.6818 4.14579 14.4978 3.92807 14.262 3.78012L12.5841 2.72945C12.4128 2.62204 12.268 2.47727 12.1606 2.30597L11.1089 0.629179ZM10.5696 5.0538C10.6359 4.93186 10.6524 4.78896 10.6154 4.65515C10.5785 4.52135 10.4912 4.40708 10.3717 4.33638C10.2523 4.26569 10.1101 4.24408 9.97501 4.2761C9.83995 4.30813 9.72258 4.39129 9.64759 4.50809L6.84401 9.25327L5.15114 7.63223C5.10092 7.58067 5.04083 7.53974 4.97445 7.5119C4.90807 7.48406 4.83676 7.46987 4.76478 7.47019C4.6928 7.4705 4.62162 7.48531 4.55548 7.51373C4.48935 7.54215 4.42962 7.58359 4.37985 7.6356C4.33008 7.6876 4.29129 7.74909 4.2658 7.81641C4.24031 7.88373 4.22864 7.95549 4.23148 8.02741C4.23432 8.09934 4.25162 8.16996 4.28235 8.23505C4.31307 8.30015 4.35659 8.35839 4.41031 8.4063L6.59099 10.4959C6.64936 10.5517 6.71958 10.5936 6.79641 10.6184C6.87323 10.6433 6.95469 10.6505 7.03468 10.6394C7.11468 10.6284 7.19115 10.5995 7.25838 10.5547C7.32561 10.51 7.38187 10.4507 7.42295 10.3811L10.5696 5.0538Z" fill="#14CA74"/>
</svg>
