<svg width="24" height="24" viewBox="0 0 24 24" fill="none" xmlns="http://www.w3.org/2000/svg">
<circle cx="12" cy="12" r="12" fill="#04170D" fill-opacity="0.14"/>
<path d="M17.3846 6.27694H15.3538V5.26156C15.3538 5.17179 15.3182 5.0857 15.2547 5.02223C15.1912 4.95876 15.1051 4.9231 15.0154 4.9231C14.9256 4.9231 14.8395 4.95876 14.776 5.02223C14.7126 5.0857 14.6769 5.17179 14.6769 5.26156V6.27694H9.93845V5.26156C9.93845 5.17179 9.90279 5.0857 9.83932 5.02223C9.77585 4.95876 9.68976 4.9231 9.59999 4.9231C9.51023 4.9231 9.42414 4.95876 9.36066 5.02223C9.29719 5.0857 9.26153 5.17179 9.26153 5.26156V6.27694H7.23076C6.7821 6.27748 6.35196 6.45595 6.03471 6.7732C5.71746 7.09045 5.53899 7.52059 5.53845 7.96925V16.7692C5.53899 17.2179 5.71746 17.648 6.03471 17.9653C6.35196 18.2826 6.7821 18.461 7.23076 18.4616H17.3846C17.8334 18.4616 18.2639 18.2833 18.5812 17.9659C18.8986 17.6485 19.0769 17.2181 19.0769 16.7692V7.96925C19.0769 7.52042 18.8986 7.08998 18.5812 6.77261C18.2639 6.45524 17.8334 6.27694 17.3846 6.27694ZM18.4 16.7692C18.4 17.0385 18.293 17.2968 18.1026 17.4872C17.9122 17.6777 17.6539 17.7846 17.3846 17.7846H7.23076C6.96146 17.7846 6.7032 17.6777 6.51277 17.4872C6.32235 17.2968 6.21538 17.0385 6.21538 16.7692V11.0154H18.4V16.7692ZM18.4 10.3385H6.21538V7.96925C6.21538 7.40876 6.66891 6.95386 7.23076 6.95386H9.26153V7.96925C9.26153 8.05902 9.29719 8.1451 9.36066 8.20858C9.42414 8.27205 9.51023 8.30771 9.59999 8.30771C9.68976 8.30771 9.77585 8.27205 9.83932 8.20858C9.90279 8.1451 9.93845 8.05902 9.93845 7.96925V6.95386H14.6769V7.96925C14.6769 8.05902 14.7126 8.1451 14.776 8.20858C14.8395 8.27205 14.9256 8.30771 15.0154 8.30771C15.1051 8.30771 15.1912 8.27205 15.2547 8.20858C15.3182 8.1451 15.3538 8.05902 15.3538 7.96925V6.95386H17.3846C17.6539 6.95386 17.9122 7.06084 18.1026 7.25126C18.293 7.44169 18.4 7.69995 18.4 7.96925V10.3385Z" fill="white"/>
</svg>
