<svg width="24" height="24" viewBox="0 0 24 24" fill="none" xmlns="http://www.w3.org/2000/svg">
<circle cx="12" cy="12" r="12" fill="black" fill-opacity="0.12"/>
<path fill-rule="evenodd" clip-rule="evenodd" d="M5.47294 6.12732C5.15609 6.12732 4.89563 6.38778 4.89563 6.70462V17.5657C4.89563 17.8826 5.15609 18.143 5.47294 18.143H19.1408C19.4577 18.143 19.7181 17.8826 19.7181 17.5657V6.70462C19.7181 6.38778 19.4577 6.12732 19.1408 6.12732H5.47294ZM4.30688 6.70462C4.30688 6.06262 4.83093 5.53857 5.47294 5.53857H19.1408C19.7828 5.53857 20.3069 6.06262 20.3069 6.70462V17.5657C20.3069 18.2077 19.7828 18.7318 19.1408 18.7318H5.47294C4.83093 18.7318 4.30688 18.2077 4.30688 17.5657L4.30688 6.70462Z" fill="white"/>
<path fill-rule="evenodd" clip-rule="evenodd" d="M5.47294 6.12732C5.15609 6.12732 4.89563 6.38778 4.89563 6.70462V17.5657C4.89563 17.8826 5.15609 18.143 5.47294 18.143H19.1408C19.4577 18.143 19.7181 17.8826 19.7181 17.5657V6.70462C19.7181 6.38778 19.4577 6.12732 19.1408 6.12732H5.47294ZM4.30688 6.70462C4.30688 6.06262 4.83093 5.53857 5.47294 5.53857H19.1408C19.7828 5.53857 20.3069 6.06262 20.3069 6.70462V17.5657C20.3069 18.2077 19.7828 18.7318 19.1408 18.7318H5.47294C4.83093 18.7318 4.30688 18.2077 4.30688 17.5657L4.30688 6.70462Z" fill="white"/>
<path fill-rule="evenodd" clip-rule="evenodd" d="M12.3069 9.72693C11.9351 9.72693 11.6337 10.0283 11.6337 10.4001C11.6337 10.7719 11.9351 11.0733 12.3069 11.0733C12.6786 11.0733 12.98 10.7719 12.98 10.4001C12.98 10.0283 12.6786 9.72693 12.3069 9.72693ZM11.0449 10.4001C11.0449 9.70318 11.6099 9.13818 12.3069 9.13818C13.0038 9.13818 13.5688 9.70318 13.5688 10.4001C13.5688 11.0971 13.0038 11.6621 12.3069 11.6621C11.6099 11.6621 11.0449 11.0971 11.0449 10.4001Z" fill="white"/>
<path fill-rule="evenodd" clip-rule="evenodd" d="M9.17139 14.637C9.17139 13.2715 10.2708 12.1721 11.6363 12.1721H12.9786C14.3449 12.1721 15.4435 13.281 15.4435 14.637C15.4435 14.7996 15.3117 14.9313 15.1491 14.9313H9.46576C9.3032 14.9313 9.17139 14.7996 9.17139 14.637ZM9.78286 14.3426H14.8317C14.6906 13.4489 13.9174 12.7609 12.9786 12.7609H11.6363C10.6961 12.7609 9.92304 13.4434 9.78286 14.3426Z" fill="white"/>
<path fill-rule="evenodd" clip-rule="evenodd" d="M8.64732 10.7301C8.40551 10.7301 8.20948 10.9261 8.20948 11.1679C8.20948 11.4097 8.40551 11.6058 8.64732 11.6058C8.88913 11.6058 9.08517 11.4097 9.08517 11.1679C9.08517 10.9261 8.88913 10.7301 8.64732 10.7301ZM7.62073 11.1679C7.62073 10.601 8.08035 10.1414 8.64732 10.1414C9.21429 10.1414 9.67388 10.601 9.67388 11.1679C9.67388 11.7349 9.21429 12.1945 8.64732 12.1945C8.08035 12.1945 7.62073 11.7349 7.62073 11.1679Z" fill="white"/>
<path fill-rule="evenodd" clip-rule="evenodd" d="M6.82865 14.3516C6.96242 13.7466 7.49959 13.2929 8.14102 13.2929H9.16087C9.40946 13.2929 9.64462 13.3639 9.8449 13.4854C9.98387 13.5698 10.1649 13.5256 10.2493 13.3866C10.3337 13.2476 10.2894 13.0666 10.1505 12.9822C9.86262 12.8074 9.52246 12.7041 9.16087 12.7041H8.14102C7.06986 12.7041 6.20789 13.5789 6.20789 14.6459C6.20789 14.8085 6.33968 14.9403 6.50226 14.9403H10.7996C10.9622 14.9403 11.094 14.8085 11.094 14.6459C11.094 14.4834 10.9622 14.3516 10.7996 14.3516H6.82865Z" fill="white"/>
<path fill-rule="evenodd" clip-rule="evenodd" d="M15.9692 10.7301C15.7274 10.7301 15.5314 10.9261 15.5314 11.1679C15.5314 11.4097 15.7274 11.6058 15.9692 11.6058C16.211 11.6058 16.407 11.4097 16.407 11.1679C16.407 10.9261 16.211 10.7301 15.9692 10.7301ZM14.9426 11.1679C14.9426 10.601 15.4023 10.1414 15.9692 10.1414C16.5362 10.1414 16.9958 10.601 16.9958 11.1679C16.9958 11.7349 16.5362 12.1945 15.9692 12.1945C15.4023 12.1945 14.9426 11.7349 14.9426 11.1679Z" fill="white"/>
<path fill-rule="evenodd" clip-rule="evenodd" d="M14.4736 12.9822C14.7615 12.8074 15.1016 12.7041 15.4632 12.7041H16.4744C17.5532 12.7041 18.4162 13.5779 18.4162 14.6459C18.4162 14.8085 18.2844 14.9403 18.1218 14.9403H13.8157C13.6531 14.9403 13.5214 14.8085 13.5214 14.6459C13.5214 14.4834 13.6531 14.3516 13.8157 14.3516H17.7954C17.6616 13.7472 17.1241 13.2929 16.4744 13.2929H15.4632C15.2146 13.2929 14.9795 13.3639 14.7792 13.4854C14.6402 13.5698 14.4591 13.5256 14.3748 13.3866C14.2904 13.2476 14.3346 13.0666 14.4736 12.9822Z" fill="white"/>
<path fill-rule="evenodd" clip-rule="evenodd" d="M14.3669 17.2429C14.3669 17.0803 14.4987 16.9485 14.6613 16.9485H18.3049C18.4675 16.9485 18.5993 17.0803 18.5993 17.2429V18.4371C18.5993 18.5996 18.4675 18.7314 18.3049 18.7314H14.6613C14.4987 18.7314 14.3669 18.5996 14.3669 18.4371V17.2429ZM14.9557 17.5372V18.1427H18.0105V17.5372H14.9557Z" fill="white"/>
</svg>
