<svg width="24" height="24" viewBox="0 0 24 24" fill="none" xmlns="http://www.w3.org/2000/svg">
<circle cx="12" cy="12" r="12" fill="#FCFCFC" fill-opacity="0.14"/>
<path d="M17.2284 17.7679H5.40186C4.79856 17.7679 4.30762 17.277 4.30762 16.6737V6.61548C4.30762 6.01218 4.79856 5.52124 5.40186 5.52124H17.2284C17.8317 5.52124 18.3227 6.01218 18.3227 6.61548V16.6761C18.3227 17.277 17.8317 17.7679 17.2284 17.7679ZM5.40186 6.00974C5.06723 6.00974 4.79612 6.28086 4.79612 6.61548V16.6761C4.79612 17.0107 5.06723 17.2819 5.40186 17.2819H17.2284C17.5631 17.2819 17.8342 17.0107 17.8342 16.6761V6.61548C17.8342 6.28086 17.5631 6.00974 17.2284 6.00974H5.40186Z" fill="white"/>
<path d="M18.0784 7.99289H4.55187C4.41753 7.99289 4.30762 7.88298 4.30762 7.74864C4.30762 7.61431 4.41753 7.50439 4.55187 7.50439H18.0784C18.2128 7.50439 18.3227 7.61431 18.3227 7.74864C18.3227 7.88298 18.2128 7.99289 18.0784 7.99289Z" fill="white"/>
<path d="M6.07112 6.97922H5.60948C5.47515 6.97922 5.36523 6.86931 5.36523 6.73497C5.36523 6.60063 5.47515 6.49072 5.60948 6.49072H6.07112C6.20545 6.49072 6.31537 6.60063 6.31537 6.73497C6.31537 6.86931 6.20545 6.97922 6.07112 6.97922Z" fill="white"/>
<path d="M7.42414 6.97922H6.96251C6.82817 6.97922 6.71826 6.86931 6.71826 6.73497C6.71826 6.60063 6.82817 6.49072 6.96251 6.49072H7.42414C7.55848 6.49072 7.66839 6.60063 7.66839 6.73497C7.66839 6.86931 7.56092 6.97922 7.42414 6.97922Z" fill="white"/>
<path d="M16.994 6.97922H16.5323C16.398 6.97922 16.2881 6.86931 16.2881 6.73497C16.2881 6.60063 16.398 6.49072 16.5323 6.49072H16.994C17.1283 6.49072 17.2382 6.60063 17.2382 6.73497C17.2382 6.86931 17.1283 6.97922 16.994 6.97922Z" fill="white"/>
<path d="M18.0784 12.8808H4.55187C4.41753 12.8808 4.30762 12.7709 4.30762 12.6366C4.30762 12.5022 4.41753 12.3923 4.55187 12.3923H18.0784C18.2128 12.3923 18.3227 12.5022 18.3227 12.6366C18.3227 12.7709 18.2128 12.8808 18.0784 12.8808Z" fill="white"/>
<path d="M11.3151 17.7678C11.1807 17.7678 11.0708 17.6579 11.0708 17.5235V7.74864C11.0708 7.61431 11.1807 7.50439 11.3151 7.50439C11.4494 7.50439 11.5593 7.61431 11.5593 7.74864V17.526C11.5593 17.6603 11.4494 17.7678 11.3151 17.7678Z" fill="white"/>
<path d="M8.01558 11.5907C7.46358 11.5907 7.0166 11.1413 7.0166 10.5918C7.0166 10.0422 7.46602 9.59277 8.01558 9.59277C8.56515 9.59277 9.01457 10.0422 9.01457 10.5918C9.01457 11.1413 8.56759 11.5907 8.01558 11.5907ZM8.01558 10.0788C7.7347 10.0788 7.5051 10.3084 7.5051 10.5893C7.5051 10.8726 7.7347 11.0998 8.01558 11.0998C8.29891 11.0998 8.52607 10.8702 8.52607 10.5893C8.52607 10.3084 8.29647 10.0788 8.01558 10.0788Z" fill="white"/>
<path d="M9.30498 12.8802C9.17064 12.8802 9.06073 12.7703 9.06073 12.6359C9.06073 12.0595 8.59177 11.5905 8.01534 11.5905C7.43891 11.5905 6.96995 12.0595 6.96995 12.6359C6.96995 12.7703 6.86003 12.8802 6.7257 12.8802C6.59136 12.8802 6.48145 12.7703 6.48145 12.6359C6.48145 11.7908 7.17023 11.1021 8.01534 11.1021C8.86044 11.1021 9.54923 11.7908 9.54923 12.6359C9.54923 12.7703 9.43931 12.8802 9.30498 12.8802Z" fill="white"/>
<path d="M8.01558 16.4784C7.46358 16.4784 7.0166 16.029 7.0166 15.4794C7.0166 14.9299 7.46602 14.4805 8.01558 14.4805C8.56515 14.4805 9.01457 14.9299 9.01457 15.4794C9.01457 16.029 8.56759 16.4784 8.01558 16.4784ZM8.01558 14.9665C7.7347 14.9665 7.5051 15.1961 7.5051 15.477C7.5051 15.7579 7.7347 15.9875 8.01558 15.9875C8.29891 15.9875 8.52607 15.7579 8.52607 15.477C8.52607 15.1961 8.29647 14.9665 8.01558 14.9665Z" fill="white"/>
<path d="M9.30498 17.7681C9.17064 17.7681 9.06073 17.6582 9.06073 17.5239C9.06073 16.9474 8.59177 16.4785 8.01534 16.4785C7.43891 16.4785 6.96995 16.9474 6.96995 17.5239C6.96995 17.6582 6.86003 17.7681 6.7257 17.7681C6.59136 17.7681 6.48145 17.6582 6.48145 17.5239C6.48145 16.6788 7.17023 15.99 8.01534 15.99C8.86044 15.99 9.54923 16.6788 9.54923 17.5239C9.54923 17.6607 9.43931 17.7681 9.30498 17.7681Z" fill="white"/>
<path d="M14.8496 11.5907C14.2976 11.5907 13.8506 11.1413 13.8506 10.5918C13.8506 10.0422 14.3 9.59277 14.8496 9.59277C15.3991 9.59277 15.8486 10.0422 15.8486 10.5918C15.8486 11.1413 15.3991 11.5907 14.8496 11.5907ZM14.8496 10.0788C14.5662 10.0788 14.3391 10.3084 14.3391 10.5893C14.3391 10.8726 14.5687 11.0998 14.8496 11.0998C15.1305 11.0998 15.3601 10.8702 15.3601 10.5893C15.3601 10.3084 15.1305 10.0788 14.8496 10.0788Z" fill="white"/>
<path d="M16.139 12.8802C16.0046 12.8802 15.8947 12.7703 15.8947 12.6359C15.8947 12.0595 15.4258 11.5905 14.8493 11.5905C14.2729 11.5905 13.8039 12.0595 13.8039 12.6359C13.8039 12.7703 13.694 12.8802 13.5597 12.8802C13.4253 12.8802 13.3154 12.7703 13.3154 12.6359C13.3154 11.7908 14.0042 11.1021 14.8493 11.1021C15.6944 11.1021 16.3832 11.7908 16.3832 12.6359C16.3832 12.7703 16.2733 12.8802 16.139 12.8802Z" fill="white"/>
<path d="M14.8496 16.4784C14.2976 16.4784 13.8506 16.029 13.8506 15.4794C13.8506 14.9299 14.3 14.4805 14.8496 14.4805C15.3991 14.4805 15.8486 14.9299 15.8486 15.4794C15.8486 16.029 15.3991 16.4784 14.8496 16.4784ZM14.8496 14.9665C14.5662 14.9665 14.3391 15.1961 14.3391 15.477C14.3391 15.7579 14.5687 15.9875 14.8496 15.9875C15.1305 15.9875 15.3601 15.7579 15.3601 15.477C15.3601 15.1961 15.1305 14.9665 14.8496 14.9665Z" fill="white"/>
<path d="M16.139 17.7681C16.0046 17.7681 15.8947 17.6582 15.8947 17.5239C15.8947 16.9474 15.4258 16.4785 14.8493 16.4785C14.2729 16.4785 13.8039 16.9474 13.8039 17.5239C13.8039 17.6582 13.694 17.7681 13.5597 17.7681C13.4253 17.7681 13.3154 17.6582 13.3154 17.5239C13.3154 16.6788 14.0042 15.99 14.8493 15.99C15.6944 15.99 16.3832 16.6788 16.3832 17.5239C16.3832 17.6607 16.2733 17.7681 16.139 17.7681Z" fill="white"/>
<path d="M17.1296 19.6413L5.76116 16.3815C5.18124 16.2152 4.84464 15.608 5.01093 15.028L7.78335 5.35947C7.94964 4.77954 8.55689 4.44294 9.13681 4.60923L20.5053 7.86907C21.0852 8.03536 21.4218 8.64261 21.2555 9.22253L18.4824 18.8934C18.3168 19.471 17.7095 19.8076 17.1296 19.6413ZM9.00216 5.07881C8.6805 4.98657 8.34516 5.17246 8.25292 5.49411L5.47983 15.165C5.3876 15.4867 5.57348 15.822 5.89514 15.9143L17.2636 19.1741C17.5852 19.2663 17.9206 19.0805 18.0128 18.7588L20.7859 9.08788C20.8782 8.76623 20.6923 8.43088 20.3706 8.33865L9.00216 5.07881Z" fill="#A4A4A4" fill-opacity="0.07"/>
<path d="M20.6408 10.4797L7.63823 6.75126C7.50909 6.71423 7.43373 6.57828 7.47076 6.44914C7.50779 6.32001 7.64374 6.24465 7.77287 6.28168L20.7754 10.0101C20.9046 10.0471 20.9799 10.1831 20.9429 10.3122C20.9059 10.4413 20.7699 10.5167 20.6408 10.4797Z" fill="#A4A4A4" fill-opacity="0.07"/>
<path d="M9.37787 6.19539L8.93412 6.06815C8.80499 6.03112 8.72963 5.89517 8.76666 5.76604C8.80369 5.6369 8.93964 5.56155 9.06877 5.59857L9.51252 5.72582C9.64166 5.76285 9.71701 5.8988 9.67999 6.02793C9.64296 6.15706 9.50701 6.23242 9.37787 6.19539Z" fill="#A4A4A4" fill-opacity="0.07"/>
<path d="M10.6787 6.56868L10.2349 6.44144C10.1058 6.40441 10.0304 6.26846 10.0674 6.13933C10.1045 6.0102 10.2404 5.93484 10.3696 5.97187L10.8133 6.09911C10.9424 6.13614 11.0178 6.27209 10.9808 6.40122C10.9437 6.53035 10.8101 6.60639 10.6787 6.56868Z" fill="#A4A4A4" fill-opacity="0.07"/>
<path d="M19.8779 9.20638L19.4341 9.07914C19.305 9.04211 19.2296 8.90616 19.2667 8.77702C19.3037 8.64789 19.4396 8.57253 19.5688 8.60956L20.0125 8.7368C20.1417 8.77383 20.217 8.90978 20.18 9.03892C20.143 9.16805 20.007 9.24341 19.8779 9.20638Z" fill="#A4A4A4" fill-opacity="0.07"/>
<path d="M19.2936 15.1774L6.29106 11.449C6.16192 11.412 6.08657 11.276 6.12359 11.1469C6.16062 11.0178 6.29657 10.9424 6.42571 10.9794L19.4283 14.7079C19.5574 14.7449 19.6328 14.8808 19.5957 15.01C19.5587 15.1391 19.4228 15.2145 19.2936 15.1774Z" fill="#A4A4A4" fill-opacity="0.07"/>
<path d="M11.4454 18.0112C11.3162 17.9742 11.2409 17.8383 11.2779 17.7091L13.9722 8.31291C14.0093 8.18378 14.1452 8.10842 14.2743 8.14545C14.4035 8.18248 14.4788 8.31843 14.4418 8.44756L11.7468 17.8461C11.7098 17.9753 11.5745 18.0483 11.4454 18.0112Z" fill="#A4A4A4" fill-opacity="0.07"/>
<path d="M9.97549 11.1642C9.44487 11.012 9.13908 10.4568 9.29056 9.92854C9.44204 9.40027 9.99793 9.09214 10.5262 9.24362C11.0545 9.3951 11.3626 9.95098 11.2111 10.4793C11.0596 11.0075 10.5061 11.3163 9.97549 11.1642ZM10.3922 9.71085C10.1222 9.63342 9.83823 9.79084 9.76081 10.0608C9.68271 10.3332 9.8408 10.6148 10.1108 10.6923C10.3832 10.7704 10.6648 10.6123 10.7422 10.3423C10.8196 10.0723 10.6622 9.78827 10.3922 9.71085Z" fill="#A4A4A4" fill-opacity="0.07"/>
<path d="M10.8598 12.7593C10.7306 12.7222 10.6553 12.5863 10.6923 12.4571C10.8512 11.903 10.5297 11.323 9.97556 11.1641C9.42146 11.0052 8.84141 11.3267 8.68252 11.8808C8.64549 12.01 8.50954 12.0853 8.38041 12.0483C8.25127 12.0113 8.17592 11.8753 8.21294 11.7462C8.44589 10.9338 9.29785 10.4616 10.1102 10.6945C10.9226 10.9275 11.3948 11.7794 11.1619 12.5918C11.1249 12.7209 10.9889 12.7963 10.8598 12.7593Z" fill="#A4A4A4" fill-opacity="0.07"/>
<path d="M8.62881 15.8619C8.09819 15.7098 7.7924 15.1546 7.94388 14.6263C8.09536 14.098 8.65125 13.7899 9.17952 13.9414C9.7078 14.0929 10.0159 14.6487 9.86445 15.177C9.71297 15.7053 9.15943 16.0141 8.62881 15.8619ZM9.04555 14.4086C8.77554 14.3312 8.49155 14.4886 8.41413 14.7586C8.33671 15.0286 8.49412 15.3126 8.76413 15.39C9.03648 15.4681 9.31812 15.31 9.39555 15.04C9.47297 14.77 9.31555 14.486 9.04555 14.4086Z" fill="#A4A4A4" fill-opacity="0.07"/>
<path d="M9.51261 17.4575C9.38347 17.4205 9.30811 17.2845 9.34514 17.1554C9.50403 16.6013 9.1825 16.0212 8.6284 15.8623C8.0743 15.7035 7.49424 16.025 7.33535 16.5791C7.29832 16.7082 7.16237 16.7836 7.03324 16.7465C6.90411 16.7095 6.82875 16.5736 6.86578 16.4444C7.09872 15.6321 7.95068 15.1598 8.76304 15.3928C9.57541 15.6257 10.0477 16.4777 9.81472 17.29C9.77702 17.4215 9.64174 17.4945 9.51261 17.4575Z" fill="#A4A4A4" fill-opacity="0.07"/>
<path d="M16.5453 13.048C16.0147 12.8958 15.7089 12.3406 15.8604 11.8123C16.0119 11.2841 16.5678 10.9759 17.096 11.1274C17.6243 11.2789 17.9324 11.8348 17.781 12.363C17.6295 12.8913 17.0736 13.1994 16.5453 13.048ZM16.9621 11.5946C16.6897 11.5165 16.4081 11.6746 16.3306 11.9446C16.2525 12.217 16.4106 12.4986 16.6806 12.576C16.9506 12.6535 17.2346 12.4961 17.312 12.226C17.3895 11.956 17.2321 11.6721 16.9621 11.5946Z" fill="#A4A4A4" fill-opacity="0.07"/>
<path d="M17.4291 14.6426C17.3 14.6055 17.2246 14.4696 17.2616 14.3404C17.4205 13.7863 17.099 13.2063 16.5449 13.0474C15.9908 12.8885 15.4107 13.21 15.2519 13.7641C15.2148 13.8933 15.0789 13.9686 14.9497 13.9316C14.8206 13.8946 14.7453 13.7586 14.7823 13.6295C15.0152 12.8171 15.8672 12.3449 16.6795 12.5778C17.4919 12.8108 17.9642 13.6627 17.7312 14.4751C17.6942 14.6042 17.5582 14.6796 17.4291 14.6426Z" fill="#A4A4A4" fill-opacity="0.07"/>
<path d="M15.1981 17.7462C14.6675 17.5941 14.3617 17.0388 14.5132 16.5106C14.6647 15.9823 15.2206 15.6742 15.7489 15.8256C16.2771 15.9771 16.5853 16.533 16.4338 17.0613C16.2823 17.5896 15.7264 17.8977 15.1981 17.7462ZM15.6149 16.2929C15.3425 16.2148 15.0609 16.3729 14.9835 16.6429C14.906 16.9129 15.0635 17.1969 15.3335 17.2743C15.6035 17.3517 15.8875 17.1943 15.9649 16.9243C16.0423 16.6543 15.8849 16.3703 15.6149 16.2929Z" fill="#A4A4A4" fill-opacity="0.07"/>
<path d="M16.0824 19.3413C15.9533 19.3043 15.8779 19.1683 15.915 19.0392C16.0739 18.4851 15.7523 17.905 15.1982 17.7461C14.6441 17.5872 14.0641 17.9088 13.9052 18.4629C13.8681 18.592 13.7322 18.6674 13.6031 18.6303C13.4739 18.5933 13.3986 18.4574 13.4356 18.3282C13.6685 17.5159 14.5205 17.0436 15.3329 17.2766C16.1452 17.5095 16.6175 18.3615 16.3845 19.1738C16.3468 19.3053 16.2116 19.3783 16.0824 19.3413Z" fill="#A4A4A4" fill-opacity="0.07"/>
</svg>
