<svg width="24" height="24" viewBox="0 0 24 24" fill="none" xmlns="http://www.w3.org/2000/svg">
<circle cx="12" cy="12" r="12" fill="#FCFCFC" fill-opacity="0.14"/>
<path fill-rule="evenodd" clip-rule="evenodd" d="M5.47379 6.12732C5.15694 6.12732 4.89648 6.38778 4.89648 6.70462V17.5657C4.89648 17.8826 5.15694 18.143 5.47379 18.143H19.1417C19.4585 18.143 19.719 17.8826 19.719 17.5657V6.70462C19.719 6.38778 19.4585 6.12732 19.1417 6.12732H5.47379ZM4.30774 6.70462C4.30774 6.06262 4.83179 5.53857 5.47379 5.53857H19.1417C19.7837 5.53857 20.3077 6.06262 20.3077 6.70462V17.5657C20.3077 18.2077 19.7837 18.7318 19.1417 18.7318H5.47379C4.83179 18.7318 4.30774 18.2077 4.30774 17.5657L4.30774 6.70462Z" fill="white"/>
<circle cx="7.37629" cy="8.82599" r="1.23425" fill="white" stroke="#323232" stroke-width="0.6"/>
<ellipse cx="7.37629" cy="8.82648" rx="0.852359" ry="0.852359" fill="white"/>
<rect x="9.56799" y="8.1687" width="7.23288" height="0.876712" rx="0.438356" fill="white"/>
<rect x="6.71887" y="11.895" width="4.60274" height="0.876712" rx="0.438356" fill="white"/>
<rect x="6.71887" y="13.2097" width="10.0822" height="0.438356" rx="0.219178" fill="white"/>
<rect x="6.71887" y="14.7441" width="4.60274" height="0.876712" rx="0.438356" fill="white"/>
<rect x="6.71887" y="16.0593" width="10.0822" height="0.438356" rx="0.219178" fill="white"/>
</svg>
