<svg width="24" height="24" viewBox="0 0 24 24" fill="none" xmlns="http://www.w3.org/2000/svg">
<circle cx="12" cy="12" r="12" fill="#3F6DB7"/>
<path d="M13.9425 3.69231H9.44305C9.00998 3.69231 8.65771 4.04457 8.65771 4.47764V6.67845C8.65771 7.11152 9.00998 7.46379 9.44305 7.46379H9.97158V7.91206C9.97158 8.01979 10.0364 8.11713 10.1361 8.15846C10.1692 8.17206 10.2038 8.17873 10.2382 8.17873C10.3076 8.17873 10.3758 8.15153 10.4268 8.10059L11.0638 7.46379H13.9425C14.3756 7.46379 14.7278 7.11152 14.7278 6.67845V4.47764C14.7278 4.04457 14.3756 3.69231 13.9425 3.69231ZM14.1945 6.67845C14.1945 6.81739 14.0814 6.93045 13.9425 6.93045H10.9534C10.8825 6.93045 10.8148 6.95845 10.7649 7.00859L10.5049 7.26832V7.19712C10.5049 7.04992 10.3857 6.93045 10.2382 6.93045H9.44305C9.30411 6.93045 9.19105 6.81739 9.19105 6.67845V4.47764C9.19105 4.33871 9.30411 4.22564 9.44305 4.22564H13.9425C14.0814 4.22564 14.1945 4.33871 14.1945 4.47764V6.67845Z" fill="#E2E2E2"/>
<path d="M12.5521 5.16179C12.5521 5.01459 12.4329 4.89513 12.2854 4.89513H10.0233C9.87579 4.89513 9.75659 5.01459 9.75659 5.16179C9.75659 5.309 9.87579 5.42846 10.0233 5.42846H12.2854C12.4329 5.42846 12.5521 5.309 12.5521 5.16179Z" fill="#E2E2E2"/>
<path d="M13.2608 5.40997C13.2928 5.42331 13.3275 5.42864 13.3621 5.42864C13.3968 5.42864 13.4315 5.42331 13.4635 5.40997C13.4981 5.39397 13.5248 5.37531 13.5515 5.35131C13.5755 5.32731 13.5941 5.29797 13.6101 5.26331C13.6237 5.23131 13.6288 5.19664 13.6288 5.16197C13.6288 5.1273 13.6235 5.09264 13.6101 5.06064C13.5941 5.02864 13.5755 4.9993 13.5515 4.9753C13.5275 4.94864 13.4981 4.92997 13.4635 4.91664C13.3995 4.88997 13.3248 4.88997 13.2608 4.91664C13.2288 4.92997 13.1995 4.94864 13.1755 4.9753C13.1488 4.9993 13.1301 5.02864 13.1168 5.06064C13.1035 5.09264 13.0955 5.1273 13.0955 5.16197C13.0955 5.23131 13.1248 5.30064 13.1755 5.35131C13.1995 5.37531 13.2288 5.39397 13.2608 5.40997Z" fill="#E2E2E2"/>
<path d="M13.3625 5.80289H11.1004C10.9529 5.80289 10.8337 5.92235 10.8337 6.06955C10.8337 6.21676 10.9529 6.33622 11.1004 6.33622H13.3625C13.51 6.33622 13.6292 6.21676 13.6292 6.06955C13.6292 5.92235 13.51 5.80289 13.3625 5.80289Z" fill="#E2E2E2"/>
<path d="M10.2099 5.88148C10.1379 5.80681 10.0179 5.78281 9.9219 5.82281C9.88724 5.83615 9.85817 5.85481 9.83417 5.88148C9.8099 5.90548 9.78857 5.93481 9.77524 5.96681C9.7619 5.99881 9.75684 6.03348 9.75684 6.06815C9.75684 6.10548 9.76217 6.13748 9.77524 6.17215C9.7915 6.20415 9.8099 6.23348 9.83417 6.25748C9.85817 6.28148 9.88724 6.30282 9.9219 6.31615C9.9539 6.32948 9.98857 6.33482 10.0235 6.33482C10.0928 6.33482 10.1622 6.30815 10.2099 6.25748C10.2368 6.23348 10.2552 6.20415 10.2688 6.17215C10.2822 6.13748 10.2902 6.10548 10.2902 6.06815C10.2902 6.03348 10.2822 5.99881 10.2688 5.96681C10.2552 5.93481 10.2368 5.90548 10.2099 5.88148Z" fill="#E2E2E2"/>
<path d="M7.06396 6.84044C5.89409 6.84044 4.94263 7.79218 4.94263 8.96178C4.94263 10.1314 5.89409 11.0831 7.06396 11.0831C8.23383 11.0831 9.18503 10.1317 9.18503 8.96178C9.18503 7.79191 8.23356 6.84044 7.06396 6.84044ZM7.06396 10.5498C6.18849 10.5498 5.47596 9.83752 5.47596 8.96178C5.47596 8.08605 6.18849 7.37377 7.06396 7.37377C7.93943 7.37377 8.65169 8.08605 8.65169 8.96178C8.65169 9.83752 7.93943 10.5498 7.06396 10.5498Z" fill="#E2E2E2"/>
<path d="M16.7844 11.0827C17.9543 11.0827 18.9058 10.1312 18.9058 8.96136C18.9058 7.79148 17.9543 6.84001 16.7844 6.84001C15.6146 6.84001 14.6631 7.79175 14.6631 8.96136C14.6631 10.131 15.6146 11.0827 16.7844 11.0827ZM16.7844 7.37335C17.6599 7.37335 18.3724 8.08562 18.3724 8.96136C18.3724 9.83709 17.6599 10.5494 16.7844 10.5494C15.909 10.5494 15.1964 9.83709 15.1964 8.96136C15.1964 8.08562 15.909 7.37335 16.7844 7.37335Z" fill="#E2E2E2"/>
<path d="M19.4263 16.7371H19.3092V13.0552C19.3092 12.3147 18.7065 11.712 17.966 11.712H15.6049C14.862 11.712 14.2574 12.3147 14.2574 13.0552V15.3976H13.1982C12.6817 15.3976 12.2617 15.8176 12.2617 16.3342C12.2617 16.479 12.2974 16.6147 12.3566 16.7374H11.4913C11.5502 16.6147 11.5863 16.4792 11.5863 16.3342C11.5863 15.8176 11.1662 15.3976 10.6497 15.3976H9.59052V13.0552C9.59052 12.3147 8.98598 11.712 8.24305 11.712H5.88198C5.14145 11.712 4.53878 12.3147 4.53878 13.0552V16.7371H3.95905C3.81158 16.7371 3.69238 16.8566 3.69238 17.0038V18.3056C3.69238 18.4528 3.81158 18.5723 3.95905 18.5723H19.4257C19.5732 18.5723 19.6924 18.4528 19.6924 18.3056V17.0038C19.6924 16.8566 19.5732 16.7371 19.4257 16.7371H19.4263ZM14.7908 13.0552C14.7908 12.6085 15.1558 12.2453 15.6049 12.2453H17.966C18.4126 12.2453 18.7759 12.6085 18.7759 13.0552V16.7371H16.6121C16.6214 16.7176 16.6321 16.6995 16.6401 16.6795L17.742 13.9032C17.8345 13.6707 17.8305 13.416 17.7316 13.1864C17.6324 12.9568 17.4494 12.7795 17.2169 12.6872C16.7369 12.4973 16.191 12.7325 16.0009 13.2123L15.1337 15.3976H14.7908V13.0552ZM12.7953 16.3339C12.7953 16.1118 12.9761 15.9307 13.1985 15.9307H14.518C14.5204 15.9307 14.5222 15.932 14.5244 15.932C14.5265 15.932 14.5286 15.9307 14.5308 15.9307H15.315C15.4244 15.9307 15.5225 15.864 15.563 15.7624L16.4972 13.4085C16.579 13.2019 16.8148 13.1008 17.0206 13.1827C17.1209 13.2221 17.1993 13.2987 17.242 13.3973C17.2846 13.4963 17.2862 13.6059 17.2465 13.7061L16.1446 16.4827C16.0836 16.6374 15.9364 16.7371 15.77 16.7371H13.1988C12.9764 16.7371 12.7953 16.5563 12.7953 16.3339ZM11.0532 16.3339C11.0532 16.556 10.8724 16.7371 10.65 16.7371H8.07878C7.91238 16.7371 7.76518 16.6371 7.70412 16.4827L6.60198 13.7061C6.56225 13.6061 6.56385 13.4963 6.60678 13.3976C6.64945 13.2987 6.72785 13.2224 6.82785 13.1827C6.87665 13.1635 6.92652 13.1544 6.97612 13.1544C7.13692 13.1544 7.28892 13.2509 7.35158 13.4088L8.28572 15.7627C8.32598 15.8643 8.42438 15.931 8.53372 15.931H9.31798C9.32038 15.931 9.32225 15.9323 9.32438 15.9323C9.32652 15.9323 9.32865 15.931 9.33078 15.931H10.6503C10.8727 15.931 11.0534 16.1118 11.0534 16.3342L11.0532 16.3339ZM5.07265 13.0552C5.07265 12.6085 5.43585 12.2453 5.88252 12.2453H8.24358C8.69265 12.2453 9.05772 12.6085 9.05772 13.0552V15.3976H8.71478L7.84758 13.212C7.65692 12.7325 7.11238 12.4971 6.63132 12.6869C6.39905 12.7792 6.21612 12.9565 6.11692 13.1861C6.01798 13.4157 6.01398 13.6704 6.10625 13.9029L7.20838 16.6795C7.21638 16.6995 7.22705 16.7176 7.23638 16.7371H5.07265V13.0552ZM19.1596 18.039H4.22625V17.2704H4.80518H4.80572H4.80625H19.0414H19.042H19.0425H19.1591V18.039H19.1596Z" fill="#E2E2E2"/>
</svg>
