<svg width="103" height="10" viewBox="0 0 103 10" fill="none" xmlns="http://www.w3.org/2000/svg">
<path d="M1.75971 2.38602C2.32291 2.2522 3.07414 2.32448 3.64863 2.44757C3.82865 2.48565 3.74983 2.7021 3.87459 2.73792C4.1186 2.8077 4.33648 2.69217 4.57848 2.77785C4.65874 2.80729 4.57857 3.1478 4.66232 3.17098C5.12115 3.29561 5.5434 3.18785 6.00407 3.23524C8.27321 3.46925 10.4922 3.4794 12.7785 3.51302C13.5323 3.52382 14.4614 3.78044 15.2304 3.60673C15.3201 3.58615 15.2507 3.29458 15.2667 3.26941C15.5175 2.88381 15.4588 3.48284 15.6394 3.55257C16.3561 3.8277 17.1365 3.81407 17.8046 3.66518C18.0888 3.60098 17.7707 3.03127 18.0766 3.34438C18.0978 3.3655 18.0414 3.68194 18.1218 3.71117C18.3041 3.77683 18.6396 3.70325 18.7791 3.72079C19.0481 3.75617 19.092 3.75072 19.3442 3.7411C19.689 3.73066 20.1069 3.86463 20.4728 3.77446C20.5508 3.75428 20.4296 3.43927 20.5526 3.37815C20.6756 3.31711 21.0102 3.32686 21.1264 3.39653C21.2427 3.46624 21.2081 3.72063 21.231 3.77733C21.42 4.25609 21.7701 3.56099 21.8188 3.54171C22.7079 3.21001 23.5032 3.55393 24.3517 3.50844C24.9958 3.47309 25.678 3.31012 26.2919 3.29546C27.0233 3.27923 27.6513 3.42051 28.3592 3.35354C28.4339 3.34684 28.3265 2.97462 28.4177 2.96568C29.3869 2.871 30.3539 2.8616 31.3345 3.06537C31.4329 3.08614 31.3252 3.42352 31.4245 3.46404C32.0321 3.70489 33.0052 4.3089 33.2823 2.85003C33.6872 2.88524 34.1783 2.91783 34.5531 3.18937C34.7947 3.36412 34.5884 3.73631 34.8651 3.56762C34.9276 3.53 34.8275 3.21874 34.9224 3.18618C35.322 3.04941 35.7705 3.12883 36.1632 2.94476C36.243 2.90657 36.2059 2.62492 36.2264 2.57278C36.3992 2.15017 36.7583 2.81504 36.8315 2.8609C37.3879 3.20224 37.7725 3.03634 38.2732 3.01918C38.3895 3.01536 38.2324 2.64265 38.3435 2.62533C38.92 2.54057 39.522 2.54181 40.0982 2.6807C40.2264 2.7125 40.1272 3.04217 40.1894 3.07393C40.4631 3.21001 40.4901 2.59574 40.752 2.71445C40.8072 2.73869 40.7914 3.0173 40.8028 3.04721C40.9813 3.51677 41.0792 2.83308 41.118 2.81608C41.6067 2.58581 41.9628 3.27556 42.4401 3.15029C42.4971 3.13459 42.3486 2.79088 42.5101 2.76818C43.5859 2.61486 44.7341 2.65135 45.8186 2.87574C45.9872 2.91015 45.8823 3.17968 45.8944 3.21159C46.0916 3.70984 46.1664 3.02451 46.2193 2.99608C46.6376 2.78947 47.0671 3.33845 47.3155 2.51383C49.1424 2.69991 50.9224 2.15101 52.7576 2.78211C52.7809 2.78931 52.7575 3.12613 52.8038 3.13906C53.3626 3.29827 53.23 2.78363 53.5599 2.12846C53.643 1.96393 53.9615 2.71743 53.9891 2.77244C54.0897 2.97521 54.0227 3.47799 54.0548 3.5166C54.32 3.81909 54.1933 2.17457 54.5287 2.15649C54.5393 2.15869 54.5111 2.46408 54.5408 2.49274C54.6332 2.58278 54.7137 2.45781 54.8047 2.55766C55.0132 2.78883 55.1248 3.5853 55.3996 3.10398C55.4343 3.04156 55.3276 2.11054 55.6294 2.139C55.7497 2.15114 56.2773 2.10748 56.4285 2.16026C56.5796 2.21298 56.4938 2.51929 56.505 2.53177C56.9244 2.90893 56.7819 3.0818 57.0124 3.66061C57.2428 4.2372 57.1142 2.83996 57.1874 2.67943C57.2608 2.51933 57.5702 2.83243 57.6479 2.94283C57.7257 3.05329 57.6462 3.24923 57.7134 3.31052C58.1586 3.71064 57.8628 2.60583 57.9906 2.37631C58.2917 1.83293 58.6021 2.85788 58.9084 2.94388C58.9912 2.96709 58.9124 2.73408 58.9838 2.70817C59.2665 2.60868 59.4562 2.92364 59.7673 2.60948C59.8182 2.55827 60.0497 1.92017 60.2447 2.36937C60.2723 2.43417 60.2171 2.69652 60.3425 2.74807C60.5299 2.82549 60.8622 2.86482 61.0543 2.76804C61.196 2.69646 61.0074 2.2788 61.197 2.40169C61.2812 2.45658 61.1438 2.71388 61.301 2.7962C61.4575 2.87854 61.8447 2.84729 61.9919 2.83096C62.1387 2.81445 62.0412 2.49525 62.0519 2.47284C62.1174 2.34426 62.392 2.17352 62.417 2.17259C63.6751 2.06718 64.8657 2.55154 66.0832 2.30691C66.1788 2.28818 66.0968 1.95048 66.1112 1.94411C66.4334 1.78397 66.2209 2.70434 66.4671 2.9958C66.3976 2.30546 66.5401 2.42366 66.7683 2.33561C66.8782 2.29262 66.8033 2.02782 66.8121 1.99986C66.9567 1.58414 67.0997 2.10383 67.1351 2.20982C67.2657 2.5997 67.3609 2.12599 67.4495 2.38651C67.538 2.64507 67.3863 3.04316 67.6087 3.02653C67.6582 2.77551 67.459 2.13674 67.6226 2.02297C68.2397 1.5927 69.4571 2.03837 69.9728 2.0643C70.4874 2.09024 70.6504 2.03588 70.9533 2.10981C71.5006 2.24351 71.278 1.77349 71.601 1.53612C71.9251 1.29873 71.8238 2.48914 71.8853 2.74068C71.9459 2.99216 71.984 2.72804 72.0502 2.86456C72.1162 3.00107 71.9981 3.18047 72.1389 3.22565C72.2798 3.27078 72.6339 2.79922 72.6689 2.531C72.743 1.96276 72.5419 1.38096 72.9183 1.5694C72.9399 1.58061 72.888 1.89495 72.9701 1.92215C73.622 2.12794 74.2869 2.10802 74.9366 2.28621C75.0259 2.3112 74.9655 2.66103 75.0177 2.67948C75.5615 2.87276 75.3408 2.29979 75.5986 1.63697C75.5782 2.50216 75.7671 3.02095 76.1713 3.00491C76.4143 2.99556 76.3528 2.62137 76.4959 2.34789C76.5389 2.26546 76.7242 2.5149 76.7461 2.33627C76.8185 1.75229 76.6228 1.11305 77.0527 1.34917C77.0716 1.36048 77.03 1.68024 77.0942 1.69612C77.5089 1.80031 77.526 1.19255 77.9633 1.09618C78.3061 1.02057 78.9404 1.35745 79.3372 1.39687C79.3796 2.36618 79.7399 2.12486 79.8558 1.44895C80.1128 1.46293 80.3868 1.41073 80.6386 1.49014C80.7252 1.51717 80.6841 1.80061 80.6964 1.83036C80.8856 2.29723 80.9627 1.64151 81.0165 1.61314C81.6013 1.33419 82.1141 1.80129 82.6594 1.29005C82.6787 1.27165 82.6763 0.596924 82.8545 1.08035C82.8662 1.1137 82.6938 1.42977 82.9634 1.43941C83.233 1.4491 83.7578 1.78341 84.1141 1.45205C84.2004 1.37226 84.3999 0.813977 84.6053 1.23127C84.6327 1.28796 84.6161 1.48238 84.6569 1.58794C84.7886 1.92424 84.8152 1.24074 84.9792 1.81165C85.1431 2.38252 85.444 2.80076 85.7989 2.38238C85.8103 2.37017 85.871 1.82635 85.9897 1.8287C86.179 1.8329 86.4527 1.9312 86.6495 1.91739C86.7437 1.91058 86.6659 1.57894 86.6819 1.57196C87.3062 1.35118 87.7732 1.62603 88.4593 1.72002C88.5851 1.73792 88.9191 1.26265 89.1791 1.61098C89.4645 1.99225 89.2784 3.6501 89.8664 3.22668C90.1037 3.05722 90.3053 0.955732 90.8028 2.01302C91.6442 1.70056 92.4642 2.2121 93.3019 1.78497C93.3396 1.76601 93.4312 1.17766 93.5222 1.18084C93.6576 1.18668 93.7457 1.45482 93.8427 1.46771C94.2498 1.52856 94.6063 1.27656 94.9965 1.29244C95.1446 1.29788 95.1078 1.58182 95.2845 1.58834C95.4611 1.5946 95.5589 1.21812 95.8064 1.38453C95.9934 1.51146 96.2128 2.25904 96.4562 2.33478C96.4262 1.58762 96.591 1.59442 96.8721 1.38206C96.9262 1.34089 96.8525 1.08415 96.8774 1.05126C96.9782 0.911673 97.0893 1.12184 97.1841 0.970676C97.2071 0.934353 97.195 0.679293 97.2131 0.635206C97.3666 0.250612 97.6819 0.809279 97.7362 0.906586C97.9438 1.27605 98.0142 0.939802 98.1661 1.08163C98.3177 1.22345 98.1125 1.42139 98.2852 1.50322C98.6432 1.67246 99.0885 1.60787 99.4428 1.60108C99.584 1.5968 99.47 1.26145 99.4898 1.25294C99.7771 1.15134 100.091 1.49797 100.217 0.811487C100.511 2.55401 100.384 0.632239 100.82 0.961364C100.854 0.98803 100.939 1.81487 100.82 1.94318C100.7 2.07138 100.495 1.82224 100.33 2.02112C100.291 2.06781 100.094 2.85709 100.064 2.90584C99.8297 3.28689 99.7289 2.0499 99.7119 1.98256C99.5213 1.2562 99.275 2.10829 99.2016 2.17012C98.866 2.45338 98.5599 2.29469 98.2775 2.49912C98.0927 2.63137 98.1165 3.44386 97.9651 3.42687C97.4617 3.37088 97.2283 2.24793 96.8094 3.2541C96.7195 3.46873 96.8661 4.35044 96.4683 3.67191C96.4433 3.62913 96.1417 3.00513 96.0078 3.41681C95.991 3.46872 96.0051 3.72717 95.9806 3.75023C95.8159 3.89969 95.6904 3.69976 95.5081 3.8082C95.3259 3.91663 95.1082 4.07545 94.8897 3.99897C94.758 3.95329 94.5673 3.48035 94.4994 3.36567C94.3074 3.03512 94.1496 3.60181 94.0201 3.19614C93.8896 2.78846 94.0696 2.14953 93.7701 1.89738C93.7947 2.56951 93.8065 3.26009 93.8248 3.93636C93.1978 3.94546 92.5707 3.76051 91.9444 3.82303C91.8668 3.83145 91.9653 4.18833 91.8826 4.20666C91.5335 4.28244 91.2125 4.04115 90.8528 4.16275C90.5744 4.25825 90.2845 4.65673 89.9941 4.7685C89.7733 4.00947 89.3485 4.29329 89.0263 4.23973C88.9134 4.22131 88.9101 4.01567 88.8273 3.95286C88.5149 3.72089 88.6907 4.39264 88.6143 4.50381C88.286 4.97834 88.1754 3.44283 87.7623 3.50252C87.7403 3.50517 87.5143 4.33857 87.48 4.39153C87.2621 4.73655 87.4261 4.10839 87.2757 4.05555C87.0011 3.95899 86.804 3.77309 86.5011 4.02958C86.4129 4.10548 86.2189 4.6277 86.0197 4.24204C85.9935 4.19154 85.9923 3.92004 85.9725 3.90517C85.6164 3.65871 85.6519 4.51014 85.4713 4.80857C85.2907 5.10694 84.9578 4.53533 84.8874 4.36924C84.7036 3.93968 85.0009 4.17561 85.0074 4.13218C85.083 3.61534 84.8672 3.71493 84.6965 3.68052C84.6285 2.84743 84.3956 2.90983 84.5198 3.64821C84.5337 3.72884 84.6607 3.64417 84.6965 3.68052C84.5915 4.50689 84.3382 4.62527 84.0123 3.87523C83.8597 3.52368 83.9644 3.09902 83.5659 3.27322C83.385 3.35191 83.4863 3.92269 83.3317 4.08783C82.9785 4.46466 82.4671 3.95403 82.0881 4.05853C81.9505 4.09647 82.1025 4.40386 82.0091 4.44062C81.7611 4.53917 81.5262 4.31486 81.279 4.44899C81.2566 4.46155 81.33 4.78781 81.2513 4.79613C80.6557 4.86562 80.1243 4.682 79.5 4.7088C79.1984 4.7219 78.6689 4.93166 78.3547 4.91149C77.8102 4.87849 77.1193 4.43462 76.6629 4.57511C76.3653 4.66532 76.4486 4.99113 76.3311 5.22223C76.1045 5.67014 75.6224 4.91429 75.5566 4.79679C75.5546 4.79289 75.81 4.70169 75.6627 4.53992C75.5638 4.19195 75.5595 4.7951 75.5566 4.79679C75.5135 4.72091 74.9912 4.67329 74.8915 4.74162C74.8374 4.77894 74.885 5.08926 74.8565 5.10283C74.1779 5.41827 73.4876 5.53389 72.7768 5.42481C72.7641 5.41916 72.7645 5.06924 72.7349 5.0603C72.3197 4.92644 72.0814 5.36695 71.759 5.63795C71.4366 5.90884 71.166 5.83792 70.9359 5.24927C70.6866 5.33795 70.3094 5.09212 70.0919 4.94237C69.8744 4.79261 69.8808 5.47339 69.8631 5.48778C69.3118 5.94759 68.9597 5.57616 68.3613 5.54679C68.0767 5.53167 67.5204 5.65957 67.2179 5.74988C66.9788 5.82239 66.8246 5.67083 66.6068 5.78429C66.5773 5.79947 66.6236 6.10031 66.615 6.11244C66.3849 6.48731 66.4659 5.7417 66.4076 5.61234C66.196 5.1419 66.0675 4.89218 65.7604 5.13476C65.6895 5.19034 65.5309 6.26612 65.4001 6.3354C65.2299 6.42351 65.2757 6.03848 65.098 6.14046C65.0827 6.14884 65.0983 6.38408 64.9851 6.3796C64.4598 6.36188 63.8824 6.25473 63.3401 6.30675C63.266 6.31296 63.3807 6.68137 63.274 6.69648C62.773 6.76708 62.2206 6.78212 61.7211 6.633C61.5981 6.59512 61.6601 6.32972 61.6298 6.25346C61.4444 5.79218 61.252 6.48657 61.215 6.50155C60.3344 6.87647 59.615 6.2948 58.7154 6.63673C58.6665 6.65659 58.3213 7.40826 58.1174 6.78976C58.1035 6.74862 57.9007 6.11553 57.774 6.56227C57.7662 6.59022 57.8889 6.91519 57.7031 6.89113C57.5173 6.86715 57.2327 7.10334 56.9607 6.75346C56.8747 6.64326 56.6519 6.0128 56.4397 6.53576C56.426 6.57221 56.1176 7.74573 55.9443 6.95626C55.9161 6.82629 55.8943 5.98239 55.6318 6.42939C55.5817 6.516 55.6904 6.6988 55.5531 6.82369C55.3426 7.0161 55.0395 6.80563 54.7888 7.19518C54.7451 7.26411 54.5744 7.8466 54.3907 7.42088C54.3619 7.3542 54.3951 7.07035 54.3085 7.04331C53.8963 6.91343 53.4829 7.12377 53.0623 6.95058C52.9133 6.88979 52.9638 6.43107 52.8059 6.31711C52.648 6.2032 52.3365 6.10197 52.1888 6.31811C52.041 6.53434 52.2523 7.25016 52.0177 7.3206C50.9978 7.62658 49.9522 7.25488 48.9174 7.24664C48.7639 7.24536 48.9043 7.49811 48.6791 7.51483C47.8489 7.57762 46.4265 7.8959 45.6763 7.38247C45.0753 6.97126 45.785 6.59712 45.334 6.44058C45.1164 6.36603 44.93 7.22086 44.8799 7.25008C44.3914 7.54588 44.0226 7.19083 43.5763 7.32904C43.4841 7.35769 43.5936 7.69448 43.515 7.71509C43.2465 7.78854 42.9532 7.651 42.6952 7.69246C42.5794 7.71185 42.6146 7.97161 42.5064 7.95708C42.2477 7.92532 42.0153 7.82751 41.7527 7.59607C41.7288 7.57498 41.8653 7.24241 41.6751 7.24026C41.3672 7.23771 40.9737 7.01642 40.6336 7.28399C40.5328 7.36441 40.5598 7.96087 40.3131 7.56088C40.2614 7.47735 40.2842 6.75824 40.0542 7.39058C40.0155 7.49569 39.6185 8.35315 39.3741 7.82662C39.3096 7.68804 39.1333 7.10979 39.0122 7.20845C38.9959 7.22404 39.0811 7.54072 38.9783 7.57742C38.6158 7.7012 38.2285 7.6872 37.8557 7.80729C37.7562 7.83999 37.9239 8.16353 37.775 8.20169C37.3657 8.3071 36.8448 8.24974 36.4349 8.16717C36.2837 8.1361 36.3724 7.85618 36.36 7.82687C36.1601 7.35006 36.0912 8.01136 36.0353 8.05264C35.687 8.30049 35.3966 8.00674 35.0688 8.10565C34.9783 8.13211 35.0596 8.44145 35.0428 8.47029C34.8679 8.75266 34.9795 8.18364 34.8565 8.128C34.5118 7.97025 34.1392 8.01495 33.802 8.07267C33.6782 8.09432 33.8372 8.44963 33.7259 8.46487C33.0673 8.56199 32.3774 8.56329 31.721 8.39717C31.5974 8.36523 31.6593 8.08199 31.6306 8.01954C31.4325 7.58247 31.2083 8.2045 31.1524 8.26556C30.8984 8.5443 30.7814 8.30281 30.5472 8.36128C29.4035 8.65122 27.968 8.56233 26.8718 8.51837C25.4434 8.46271 24.3264 8.25478 22.9744 8.39468C22.8884 8.40322 22.9947 8.77015 22.9209 8.78228C21.9667 8.922 21.015 8.82624 20.0598 8.9838C19.9814 8.99607 20.1135 9.34228 19.9882 9.37381C19.7314 9.44096 19.4016 9.43902 19.1333 9.34031C19.0024 9.29283 19.1583 8.98166 19.0269 8.94005C18.721 8.84245 18.3981 8.8342 18.0928 8.90678C17.963 8.93843 18.1797 9.28824 18.0094 9.30132C16.8501 9.3978 15.713 9.5195 14.5151 9.11449C14.433 9.08667 14.3241 8.35836 14.1604 8.50769C14.1582 8.71151 14.1714 8.95044 14.1771 9.16787C12.4928 9.37328 10.8064 9.20705 9.10922 9.25651C9.03766 9.25867 9.18147 9.64006 9.04305 9.64624C8.24189 9.6824 7.46983 9.83054 6.63048 9.48789C6.54723 9.45444 6.55323 8.76994 6.3191 8.88566C6.27784 8.9067 5.92185 9.01658 5.83633 9.16958C5.82483 9.19258 5.90731 9.50762 5.79155 9.52298C5.11854 9.60669 4.4068 9.57102 3.72225 9.41171C3.61174 9.38539 3.7099 9.04017 3.63103 9.01848C3.07172 8.86721 2.48709 9.15632 1.94554 8.87588C1.58298 8.68694 1.68252 8.09386 1.46543 7.52656C1.43474 7.44653 1.21627 7.44502 1.18744 7.10986C1.11435 6.26708 1.17148 5.33707 1.08111 4.43941C1.06182 4.24605 0.781065 4.47009 0.929251 3.99263C0.939675 3.96065 1.14301 3.79413 1.18678 3.6325C1.2173 3.52074 1.13408 3.18269 1.20071 3.03819C1.26735 2.89381 1.36362 3.17579 1.47764 3.00414C1.59149 2.83045 1.51726 2.44481 1.75971 2.38602ZM69.1129 4.27337C68.9022 3.95729 68.9362 5.15353 69.1306 4.85673C69.14 4.84097 69.1237 4.28885 69.1129 4.27337ZM92.5271 2.85914C92.2464 2.34542 92.1137 3.12933 92.3136 3.52697C92.5134 3.92417 92.6125 3.01485 92.5271 2.85914ZM95.1315 2.3371C94.814 1.93709 94.856 3.63372 95.1549 3.27466C95.1723 3.25434 95.1501 2.36032 95.1315 2.3371ZM2.32356 7.31689C2.32006 7.30117 2.16269 7.29389 2.15977 7.30982C2.09626 7.69363 2.41091 7.70791 2.32356 7.31689ZM97.714 1.78198C97.6097 1.55764 97.3577 1.8361 97.4873 2.11508C97.5917 2.33951 97.844 2.06105 97.714 1.78198ZM58.947 3.52663C58.943 3.50899 58.8299 3.49883 58.8375 3.59935C58.8621 3.92309 59.0135 3.82344 58.947 3.52663ZM102.14 1.53089C101.482 1.50133 101.012 0.12259 101.733 0.243248C101.863 0.265072 101.478 0.704076 101.649 0.821659C101.961 1.03581 102.115 0.146667 102.446 0.601494C102.506 0.684775 102.177 1.53568 102.138 1.5329C102.139 1.53223 102.139 1.53156 102.14 1.53089ZM68.9263 2.84416C68.9216 2.82856 68.7655 2.82171 68.7626 2.83757C68.6983 3.22127 69.0129 3.23529 68.9263 2.84416ZM52.3589 3.13056C52.3486 3.09734 51.9864 3.08472 51.9762 3.11636C51.8206 3.74645 52.553 3.7738 52.3589 3.13056ZM79.3448 1.42239C79.4943 1.03195 79.6948 0.976408 79.855 1.4485C79.6852 1.43188 79.5154 1.43701 79.3448 1.42239Z" fill="black"/>
</svg>
