<svg width="82" height="82" viewBox="0 0 82 82" fill="none" xmlns="http://www.w3.org/2000/svg">
<path d="M82 41C82 63.6437 63.6437 82 41 82C18.3563 82 0 63.6437 0 41C0 18.3563 18.3563 0 41 0C63.6437 0 82 18.3563 82 41Z" fill="#507FCB" fill-opacity="0.06"/>
<path d="M20.7426 27.7768C18.7445 30.9958 17.5539 34.6292 17.2675 38.3817C16.9812 42.1341 17.6072 45.8994 19.0947 49.3713C20.5822 52.8433 22.8892 55.9237 25.8279 58.3622C28.7667 60.8006 32.2542 62.5281 36.0067 63.4042C36.2493 63.4627 36.4756 63.5729 36.6694 63.7268C36.8632 63.8807 37.0197 64.0745 37.1277 64.2943C37.2356 64.5141 37.2924 64.7545 37.2939 64.9982C37.2954 65.2419 37.2415 65.4829 37.1363 65.7039C36.9739 66.048 36.6943 66.3265 36.345 66.492C35.9957 66.6576 35.5983 66.7 35.2206 66.6119C33.4079 66.1849 31.6437 65.5815 29.9545 64.8108L29.5042 64.595C26.1287 63.0732 23.099 60.9092 20.5926 58.2302C18.0863 55.5511 16.154 52.4109 14.9089 48.9938C13.6639 45.5767 13.1313 41.9515 13.3424 38.3309C13.5535 34.7103 14.504 31.1673 16.1381 27.9098C17.7722 24.6523 20.0571 21.7459 22.8587 19.3611C25.6602 16.9763 28.9219 15.1612 32.4525 14.0223C35.9831 12.8833 39.7114 12.4435 43.4187 12.7287C47.1259 13.0138 50.7374 14.0181 54.0413 15.6826C55.5971 16.4184 57.0769 17.2982 58.4603 18.3099C58.7697 18.5362 58.9891 18.8602 59.0809 19.2267C59.1728 19.5931 59.1314 19.9793 58.964 20.3193C58.8587 20.5399 58.7046 20.7349 58.5127 20.8904C58.3208 21.0459 58.0959 21.1579 57.8543 21.2184C57.6127 21.2789 57.3603 21.2864 57.1153 21.2403C56.8704 21.1942 56.639 21.0958 56.4378 20.952C53.6916 18.9553 50.5472 17.5413 47.207 16.8009C43.8668 16.0605 40.4046 16.0101 37.0432 16.6529C33.6818 17.2958 30.4956 18.6176 27.6895 20.5334C24.8835 22.4492 22.5197 24.9166 20.7503 27.7768H20.7426Z" fill="#1B3867"/>
<path d="M43.0206 38.1593H24.3908C24.3205 38.1745 24.2476 38.1741 24.1775 38.1582C24.1074 38.1423 24.0418 38.1112 23.9856 38.0673C23.9295 38.0233 23.8841 37.9677 23.853 37.9044C23.8218 37.8411 23.8057 37.7718 23.8057 37.7015C23.8057 37.6313 23.8218 37.562 23.853 37.4987C23.8841 37.4354 23.9295 37.3797 23.9856 37.3358C24.0418 37.2919 24.1074 37.2608 24.1775 37.2449C24.2476 37.229 24.3205 37.2286 24.3908 37.2438H43.013C43.0833 37.2286 43.1562 37.229 43.2263 37.2449C43.2964 37.2608 43.362 37.2919 43.4182 37.3358C43.4743 37.3797 43.5197 37.4354 43.5508 37.4987C43.582 37.562 43.5981 37.6313 43.5981 37.7015C43.5981 37.7718 43.582 37.8411 43.5508 37.9044C43.5197 37.9677 43.4743 38.0233 43.4182 38.0673C43.362 38.1112 43.2964 38.1423 43.2263 38.1582C43.1562 38.1741 43.0833 38.1745 43.013 38.1593H43.0206Z" fill="#E43955"/>
<path d="M43.3567 39.1414C43.0663 39.1415 42.7853 39.0406 42.5643 38.8569C42.3432 38.6732 42.1966 38.4187 42.1506 38.1391C42.1047 37.8594 42.1624 37.573 42.3135 37.3311C42.4646 37.0892 42.6992 36.9078 42.9751 36.8194L54.4232 33.1651C54.7105 33.1176 55.0058 33.1718 55.2558 33.3181C55.5057 33.4643 55.6937 33.6929 55.7859 33.9626C55.8781 34.2322 55.8683 34.5251 55.7583 34.7883C55.6484 35.0516 55.4455 35.2678 55.1864 35.3979L43.7383 39.0521C43.6166 39.1009 43.4878 39.1311 43.3567 39.1414Z" fill="#E43955"/>
<path d="M43.5484 64.4458C43.383 64.441 43.2202 64.4045 43.0693 64.3383C42.9184 64.2721 42.7823 64.1775 42.6689 64.06C42.5555 63.9425 42.467 63.8043 42.4084 63.6535C42.3497 63.5026 42.3222 63.3419 42.3273 63.1806V38.7393C42.3273 38.5829 42.3588 38.4281 42.4202 38.2836C42.4816 38.1391 42.5715 38.0079 42.6849 37.8973C42.7983 37.7867 42.9329 37.699 43.0811 37.6392C43.2292 37.5793 43.388 37.5485 43.5484 37.5485C43.7088 37.5485 43.8675 37.5793 44.0157 37.6392C44.1639 37.699 44.2985 37.7867 44.4119 37.8973C44.5253 38.0079 44.6152 38.1391 44.6766 38.2836C44.7379 38.4281 44.7695 38.5829 44.7695 38.7393L44.8077 63.1732C44.8128 63.3379 44.784 63.5019 44.7231 63.6557C44.6622 63.8094 44.5704 63.9497 44.453 64.0683C44.3357 64.1868 44.1952 64.2814 44.0398 64.3462C43.8845 64.411 43.7174 64.4449 43.5484 64.4458Z" fill="#E43955"/>
<path d="M22.5975 34.2818H22.4296C22.3089 34.2647 22.193 34.2241 22.0887 34.1624C21.9845 34.1006 21.894 34.0191 21.8228 33.9225C21.7516 33.826 21.701 33.7164 21.6742 33.6004C21.6473 33.4844 21.6447 33.3643 21.6664 33.2473C21.6664 33.1282 23.9561 21.7411 37.9761 18.6673C38.2129 18.6163 38.4608 18.659 38.6654 18.7859C38.87 18.9129 39.0146 19.1138 39.0675 19.3446C39.0945 19.459 39.0978 19.5775 39.0774 19.6932C39.057 19.8089 39.0132 19.9194 38.9486 20.0185C38.884 20.1175 38.7998 20.203 38.701 20.27C38.6022 20.337 38.4907 20.3843 38.373 20.4089C25.5588 23.2147 23.5439 33.1431 23.4676 33.5599C23.4267 33.7579 23.3186 33.9368 23.1608 34.0678C23.003 34.1987 22.8046 34.2741 22.5975 34.2818Z" fill="#E43955"/>
</svg>
