<svg width="14" height="12" viewBox="0 0 14 12" fill="none" xmlns="http://www.w3.org/2000/svg">
  <path fill-rule="evenodd" clip-rule="evenodd" d="M1.02029 0.515151C0.743053 0.515151 0.515151 0.743053 0.515151 1.02029V10.5238C0.515151 10.801 0.743053 11.0289 1.02029 11.0289H12.9797C13.2569 11.0289 13.4848 10.801 13.4848 10.5238V1.02029C13.4848 0.743053 13.2569 0.515151 12.9797 0.515151H1.02029ZM0 1.02029C0 0.458544 0.458544 0 1.02029 0H12.9797C13.5414 0 14 0.458544 14 1.02029V10.5238C14 11.0855 13.5414 11.544 12.9797 11.544H1.02029C0.458544 11.544 0 11.0855 0 10.5238L0 1.02029Z" fill="#323232"/>
  <path fill-rule="evenodd" clip-rule="evenodd" d="M1.02029 0.515151C0.743053 0.515151 0.515151 0.743053 0.515151 1.02029V10.5238C0.515151 10.801 0.743053 11.0289 1.02029 11.0289H12.9797C13.2569 11.0289 13.4848 10.801 13.4848 10.5238V1.02029C13.4848 0.743053 13.2569 0.515151 12.9797 0.515151H1.02029ZM0 1.02029C0 0.458544 0.458544 0 1.02029 0H12.9797C13.5414 0 14 0.458544 14 1.02029V10.5238C14 11.0855 13.5414 11.544 12.9797 11.544H1.02029C0.458544 11.544 0 11.0855 0 10.5238L0 1.02029Z" fill="#323232"/>
  <path fill-rule="evenodd" clip-rule="evenodd" d="M7.00019 3.66494C6.67488 3.66494 6.41115 3.92867 6.41115 4.25398C6.41115 4.57928 6.67488 4.84301 7.00019 4.84301C7.3255 4.84301 7.58923 4.57928 7.58923 4.25398C7.58923 3.92867 7.3255 3.66494 7.00019 3.66494ZM5.896 4.25398C5.896 3.64416 6.39037 3.14978 7.00019 3.14978C7.61001 3.14978 8.10439 3.64416 8.10439 4.25398C8.10439 4.8638 7.61001 5.35817 7.00019 5.35817C6.39037 5.35817 5.896 4.8638 5.896 4.25398Z" fill="#323232"/>
  <path fill-rule="evenodd" clip-rule="evenodd" d="M4.25586 7.96106C4.25586 6.76625 5.21781 5.80432 6.41262 5.80432H7.5872C8.78267 5.80432 9.74394 6.77456 9.74394 7.96106C9.74394 8.10333 9.62863 8.21864 9.48636 8.21864H4.51344C4.3712 8.21864 4.25586 8.10333 4.25586 7.96106ZM4.79089 7.70348H9.20866C9.08517 6.9215 8.40864 6.31948 7.5872 6.31948H6.41262C5.58999 6.31948 4.91356 6.91667 4.79089 7.70348Z" fill="#323232"/>
  <path fill-rule="evenodd" clip-rule="evenodd" d="M3.79671 4.54262C3.58512 4.54262 3.41359 4.71412 3.41359 4.92571C3.41359 5.13729 3.58512 5.30882 3.79671 5.30882C4.00829 5.30882 4.17982 5.13729 4.17982 4.92571C4.17982 4.71412 4.00829 4.54262 3.79671 4.54262ZM2.89844 4.92571C2.89844 4.42964 3.30061 4.02747 3.79671 4.02747C4.2928 4.02747 4.69495 4.42964 4.69495 4.92571C4.69495 5.42181 4.2928 5.82398 3.79671 5.82398C3.30061 5.82398 2.89844 5.42181 2.89844 4.92571Z" fill="#323232"/>
  <path fill-rule="evenodd" clip-rule="evenodd" d="M2.20576 7.71131C2.32281 7.18196 2.79283 6.78493 3.35409 6.78493H4.24646C4.46397 6.78493 4.66974 6.84706 4.84498 6.95345C4.96658 7.02728 5.12501 6.98856 5.19884 6.86696C5.27267 6.74536 5.23395 6.58694 5.11235 6.51311C4.86049 6.3602 4.56285 6.26978 4.24646 6.26978H3.35409C2.41683 6.26978 1.6626 7.03518 1.6626 7.96889C1.6626 8.11113 1.77792 8.22647 1.92017 8.22647H5.68036C5.82263 8.22647 5.93794 8.11113 5.93794 7.96889C5.93794 7.82665 5.82263 7.71131 5.68036 7.71131H2.20576Z" fill="#323232"/>
  <path fill-rule="evenodd" clip-rule="evenodd" d="M10.2034 4.54262C9.99183 4.54262 9.82033 4.71415 9.82033 4.92571C9.82033 5.13729 9.99183 5.30882 10.2034 5.30882C10.415 5.30882 10.5865 5.13729 10.5865 4.92571C10.5865 4.71412 10.415 4.54262 10.2034 4.54262ZM9.30518 4.92571C9.30518 4.42964 9.70735 4.02747 10.2034 4.02747C10.6995 4.02747 11.1017 4.42964 11.1017 4.92571C11.1017 5.42181 10.6995 5.82398 10.2034 5.82398C9.70735 5.82398 9.30518 5.42181 9.30518 4.92571Z" fill="#323232"/>
  <path fill-rule="evenodd" clip-rule="evenodd" d="M8.89523 6.51311C9.14709 6.3602 9.44473 6.26978 9.76113 6.26978H10.6459C11.5899 6.26978 12.345 7.03431 12.345 7.96889C12.345 8.11113 12.2297 8.22647 12.0874 8.22647H8.31959C8.17732 8.22647 8.06201 8.11113 8.06201 7.96889C8.06201 7.82665 8.17732 7.71131 8.31959 7.71131H11.8018C11.6847 7.18248 11.2144 6.78493 10.6459 6.78493H9.76113C9.54361 6.78493 9.33787 6.84706 9.1626 6.95345C9.041 7.02728 8.88257 6.98856 8.80874 6.86696C8.73491 6.74536 8.77363 6.58694 8.89523 6.51311Z" fill="#323232"/>
  <path fill-rule="evenodd" clip-rule="evenodd" d="M8.80176 10.2412C8.80176 10.099 8.91707 9.98364 9.05931 9.98364H12.2475C12.3897 9.98364 12.5051 10.099 12.5051 10.2412V11.2862C12.5051 11.4284 12.3897 11.5437 12.2475 11.5437H9.05931C8.91707 11.5437 8.80176 11.4284 8.80176 11.2862V10.2412ZM9.31689 10.4988V11.0286H11.9899V10.4988H9.31689Z" fill="#323232"/>
</svg>