<svg width="16" height="16" viewBox="0 0 16 16" fill="none" xmlns="http://www.w3.org/2000/svg">
  <path d="M7.99316 0C10.171 0 10.4379 0.000491319 11.2969 0.0205078C12.1359 0.0672195 12.7224 0.200236 13.2285 0.400391C13.7546 0.60059 14.188 0.867598 14.6475 1.32129C15.087 1.76839 15.3802 2.20254 15.5801 2.73633C15.7799 3.2503 15.9132 3.83848 15.9531 4.67285C15.9997 5.52698 16 5.80086 16 7.97656C16 10.1523 15.9931 10.4196 15.9531 11.2871C15.9198 12.1282 15.7867 12.7163 15.5869 13.2236C15.3805 13.7507 15.1075 14.1977 14.6748 14.6514C14.2285 15.0919 13.7887 15.373 13.2559 15.5732C12.7497 15.7735 12.1633 15.9062 11.3242 15.9463C10.4716 15.9997 10.1911 16 8.01953 16C5.84842 16 5.58171 15.993 4.71582 15.9463C3.87666 15.9062 3.29037 15.7735 2.78418 15.5732C2.25802 15.3663 1.80509 15.0925 1.33887 14.6787C0.899283 14.2315 0.619751 13.7839 0.419922 13.25C0.220114 12.7494 0.0868602 12.162 0.046875 11.3145C0.000247189 10.4601 0 10.1791 0 8.00977C0 5.84074 0.000432996 5.57366 0.0537109 4.70605C0.093673 3.8651 0.226963 3.27777 0.426758 2.77051C0.633242 2.24321 0.905758 1.80218 1.33203 1.33496C1.77833 0.901085 2.23176 0.621149 2.76465 0.420898C3.26421 0.220674 3.85039 0.0869219 4.69629 0.046875C5.54874 0.000161794 5.82196 0 7.99316 0ZM7.99316 1.44141C5.86177 1.44141 5.60863 1.44839 4.7627 1.49512C3.98355 1.52848 3.56377 1.65494 3.27734 1.76172C2.89766 1.90857 2.6307 2.08293 2.36426 2.36328C2.07807 2.64348 1.89878 2.91058 1.76562 3.28418C1.65239 3.57118 1.52533 3.99159 1.48535 4.77246C1.43873 5.62015 1.43848 5.87399 1.43848 8.00977C1.43848 10.1455 1.44558 10.3996 1.49219 11.2471C1.52549 12.028 1.65221 12.4493 1.75879 12.7363C1.9053 13.1166 2.07874 13.3835 2.3584 13.6504C2.6381 13.9373 2.9044 14.1175 3.27734 14.251C3.56377 14.3645 3.98336 14.4912 4.7627 14.5312C5.60863 14.578 5.86177 14.5781 7.99316 14.5781C10.1244 14.5781 10.3779 14.5711 11.2236 14.5244C12.0026 14.4911 12.4226 14.3646 12.709 14.2578C13.0887 14.111 13.3556 13.9376 13.6221 13.6572C13.9084 13.377 14.0885 13.11 14.2217 12.7363C14.3349 12.4493 14.461 12.028 14.501 11.2471C14.5476 10.3996 14.5479 10.1455 14.5479 8.00977C14.5479 5.87399 14.5408 5.62015 14.4941 4.77246C14.4608 3.99178 14.3351 3.57118 14.2285 3.28418C14.082 2.9037 13.9087 2.63614 13.6289 2.36914C13.3492 2.08218 13.082 1.90204 12.709 1.76855C12.4226 1.65513 12.0026 1.52831 11.2236 1.48828C10.378 1.44158 10.1244 1.44141 7.99316 1.44141ZM7.99316 3.89844C10.2579 3.89844 12.0965 5.74038 12.0967 8.00977C12.0967 10.2793 10.2579 12.1221 7.99316 12.1221C5.72847 12.122 3.88965 10.2792 3.88965 8.00977C3.88978 5.74043 5.72855 3.89853 7.99316 3.89844ZM7.99316 5.33984C6.52788 5.33994 5.32924 6.54143 5.3291 8.00977C5.3291 9.47821 6.5278 10.6796 7.99316 10.6797C9.45861 10.6797 10.6582 9.47827 10.6582 8.00977C10.6581 6.54138 9.45853 5.33984 7.99316 5.33984ZM12.29 2.74316C12.8228 2.74332 13.2559 3.17784 13.2559 3.70508L13.2227 3.73828C13.2225 4.27215 12.7888 4.69238 12.2627 4.69238C11.7301 4.69216 11.3301 4.26525 11.3301 3.73145C11.3301 3.19744 11.7571 2.74316 12.29 2.74316Z" fill="#E43955"/>
</svg>