<svg width="17" height="15" viewBox="0 0 17 15" fill="none" xmlns="http://www.w3.org/2000/svg">
  <path d="M12.0075 12.5087H1.01689C0.456241 12.5087 0 12.0525 0 11.4918V2.14458C0 1.58393 0.456241 1.12769 1.01689 1.12769H12.0075C12.5682 1.12769 13.0244 1.58393 13.0244 2.14458V11.4941C13.0244 12.0525 12.5682 12.5087 12.0075 12.5087ZM1.01689 1.58166C0.705925 1.58166 0.453971 1.83361 0.453971 2.14458V11.4941C0.453971 11.8051 0.705925 12.057 1.01689 12.057H12.0075C12.3185 12.057 12.5705 11.8051 12.5705 11.4941V2.14458C12.5705 1.83361 12.3185 1.58166 12.0075 1.58166H1.01689Z" fill="#323232"/>
  <path d="M12.7974 3.42486H0.226985C0.102143 3.42486 0 3.32271 0 3.19787C0 3.07303 0.102143 2.97089 0.226985 2.97089H12.7974C12.9223 2.97089 13.0244 3.07303 13.0244 3.19787C13.0244 3.32271 12.9223 3.42486 12.7974 3.42486Z" fill="#323232"/>
  <path d="M1.6389 2.48266H1.2099C1.08505 2.48266 0.98291 2.38051 0.98291 2.25567C0.98291 2.13083 1.08505 2.02869 1.2099 2.02869H1.6389C1.76374 2.02869 1.86588 2.13083 1.86588 2.25567C1.86588 2.38051 1.76374 2.48266 1.6389 2.48266Z" fill="#323232"/>
  <path d="M2.89622 2.48266H2.46722C2.34238 2.48266 2.24023 2.38051 2.24023 2.25567C2.24023 2.13083 2.34238 2.02869 2.46722 2.02869H2.89622C3.02106 2.02869 3.12321 2.13083 3.12321 2.25567C3.12321 2.38051 3.02333 2.48266 2.89622 2.48266Z" fill="#323232"/>
  <path d="M11.7893 2.48266H11.3603C11.2354 2.48266 11.1333 2.38051 11.1333 2.25567C11.1333 2.13083 11.2354 2.02869 11.3603 2.02869H11.7893C11.9141 2.02869 12.0163 2.13083 12.0163 2.25567C12.0163 2.38051 11.9141 2.48266 11.7893 2.48266Z" fill="#323232"/>
  <path d="M12.7974 7.96709H0.226985C0.102143 7.96709 0 7.86495 0 7.74011C0 7.61527 0.102143 7.51312 0.226985 7.51312H12.7974C12.9223 7.51312 13.0244 7.61527 13.0244 7.74011C13.0244 7.86495 12.9223 7.96709 12.7974 7.96709Z" fill="#323232"/>
  <path d="M6.51239 12.5088C6.38754 12.5088 6.2854 12.4067 6.2854 12.2818V3.19787C6.2854 3.07303 6.38754 2.97089 6.51239 2.97089C6.63723 2.97089 6.73937 3.07303 6.73937 3.19787V12.2841C6.73937 12.4089 6.63723 12.5088 6.51239 12.5088Z" fill="#323232"/>
  <path d="M3.44595 6.7683C2.93296 6.7683 2.51758 6.35064 2.51758 5.83993C2.51758 5.32921 2.93523 4.91156 3.44595 4.91156C3.95667 4.91156 4.37432 5.32921 4.37432 5.83993C4.37432 6.35064 3.95894 6.7683 3.44595 6.7683ZM3.44595 5.36326C3.18492 5.36326 2.97155 5.57663 2.97155 5.83766C2.97155 6.10096 3.18492 6.31206 3.44595 6.31206C3.70925 6.31206 3.92035 6.09869 3.92035 5.83766C3.92035 5.57663 3.70698 5.36326 3.44595 5.36326Z" fill="#323232"/>
  <path d="M4.64422 7.96654C4.51937 7.96654 4.41723 7.86439 4.41723 7.73955C4.41723 7.20387 3.98142 6.76806 3.44573 6.76806C2.91005 6.76806 2.47423 7.20387 2.47423 7.73955C2.47423 7.86439 2.37209 7.96654 2.24725 7.96654C2.12241 7.96654 2.02026 7.86439 2.02026 7.73955C2.02026 6.95418 2.66036 6.31409 3.44573 6.31409C4.2311 6.31409 4.8712 6.95418 4.8712 7.73955C4.8712 7.86439 4.76906 7.96654 4.64422 7.96654Z" fill="#323232"/>
  <path d="M3.44595 11.3105C2.93296 11.3105 2.51758 10.8928 2.51758 10.3821C2.51758 9.87139 2.93523 9.45374 3.44595 9.45374C3.95667 9.45374 4.37432 9.87139 4.37432 10.3821C4.37432 10.8928 3.95894 11.3105 3.44595 11.3105ZM3.44595 9.90543C3.18492 9.90543 2.97155 10.1188 2.97155 10.3798C2.97155 10.6409 3.18492 10.8542 3.44595 10.8542C3.70925 10.8542 3.92035 10.6409 3.92035 10.3798C3.92035 10.1188 3.70698 9.90543 3.44595 9.90543Z" fill="#323232"/>
  <path d="M4.64422 12.5091C4.51937 12.5091 4.41723 12.407 4.41723 12.2822C4.41723 11.7465 3.98142 11.3107 3.44573 11.3107C2.91005 11.3107 2.47423 11.7465 2.47423 12.2822C2.47423 12.407 2.37209 12.5091 2.24725 12.5091C2.12241 12.5091 2.02026 12.407 2.02026 12.2822C2.02026 11.4968 2.66036 10.8567 3.44573 10.8567C4.2311 10.8567 4.8712 11.4968 4.8712 12.2822C4.8712 12.4093 4.76906 12.5091 4.64422 12.5091Z" fill="#323232"/>
  <path d="M9.79678 6.7683C9.28379 6.7683 8.86841 6.35064 8.86841 5.83993C8.86841 5.32921 9.28606 4.91156 9.79678 4.91156C10.3075 4.91156 10.7252 5.32921 10.7252 5.83993C10.7252 6.35064 10.3075 6.7683 9.79678 6.7683ZM9.79678 5.36326C9.53348 5.36326 9.32238 5.57663 9.32238 5.83766C9.32238 6.10096 9.53575 6.31206 9.79678 6.31206C10.0578 6.31206 10.2712 6.09869 10.2712 5.83766C10.2712 5.57663 10.0578 5.36326 9.79678 5.36326Z" fill="#323232"/>
  <path d="M10.995 7.96654C10.8702 7.96654 10.7681 7.86439 10.7681 7.73955C10.7681 7.20387 10.3322 6.76806 9.79656 6.76806C9.26088 6.76806 8.82506 7.20387 8.82506 7.73955C8.82506 7.86439 8.72292 7.96654 8.59808 7.96654C8.47324 7.96654 8.37109 7.86439 8.37109 7.73955C8.37109 6.95418 9.01119 6.31409 9.79656 6.31409C10.5819 6.31409 11.222 6.95418 11.222 7.73955C11.222 7.86439 11.1199 7.96654 10.995 7.96654Z" fill="#323232"/>
  <path d="M9.79678 11.3105C9.28379 11.3105 8.86841 10.8928 8.86841 10.3821C8.86841 9.87139 9.28606 9.45374 9.79678 9.45374C10.3075 9.45374 10.7252 9.87139 10.7252 10.3821C10.7252 10.8928 10.3075 11.3105 9.79678 11.3105ZM9.79678 9.90543C9.53348 9.90543 9.32238 10.1188 9.32238 10.3798C9.32238 10.6409 9.53575 10.8542 9.79678 10.8542C10.0578 10.8542 10.2712 10.6409 10.2712 10.3798C10.2712 10.1188 10.0578 9.90543 9.79678 9.90543Z" fill="#323232"/>
  <path d="M10.995 12.5091C10.8702 12.5091 10.7681 12.407 10.7681 12.2822C10.7681 11.7465 10.3322 11.3107 9.79656 11.3107C9.26088 11.3107 8.82506 11.7465 8.82506 12.2822C8.82506 12.407 8.72292 12.5091 8.59808 12.5091C8.47324 12.5091 8.37109 12.407 8.37109 12.2822C8.37109 11.4968 9.01119 10.8567 9.79656 10.8567C10.5819 10.8567 11.222 11.4968 11.222 12.2822C11.222 12.4093 11.1199 12.5091 10.995 12.5091Z" fill="#323232"/>
  <path d="M11.9153 14.2499L1.35047 11.2204C0.811534 11.0659 0.498724 10.5016 0.653261 9.96265L3.22972 0.9775C3.38425 0.438566 3.94858 0.125757 4.48751 0.280294L15.0524 3.30972C15.5913 3.46425 15.9041 4.02858 15.7496 4.56751L13.1725 13.5548C13.0186 14.0916 12.4543 14.4044 11.9153 14.2499ZM4.36238 0.716678C4.06346 0.630963 3.75182 0.803708 3.6661 1.10263L1.08902 10.09C1.00331 10.3889 1.17605 10.7005 1.47497 10.7862L12.0398 13.8157C12.3388 13.9014 12.6504 13.7286 12.7361 13.4297L15.3132 4.44238C15.3989 4.14346 15.2262 3.83181 14.9273 3.7461L4.36238 0.716678Z" fill="black" fill-opacity="0.07"/>
  <path d="M15.1785 5.7358L3.09501 2.27092C2.97501 2.23651 2.90498 2.11017 2.93939 1.99016C2.9738 1.87016 3.10014 1.80013 3.22015 1.83454L15.3036 5.29942C15.4236 5.33383 15.4937 5.46017 15.4593 5.58017C15.4249 5.70018 15.2985 5.77021 15.1785 5.7358Z" fill="black" fill-opacity="0.07"/>
  <path d="M4.71174 1.75447L4.29936 1.63622C4.17935 1.60181 4.10932 1.47547 4.14373 1.35546C4.17814 1.23545 4.30449 1.16542 4.42449 1.19983L4.83687 1.31808C4.95688 1.35249 5.02691 1.47883 4.9925 1.59884C4.95809 1.71885 4.83175 1.78888 4.71174 1.75447Z" fill="black" fill-opacity="0.07"/>
  <path d="M5.92073 2.10102L5.50834 1.98278C5.38834 1.94836 5.31831 1.82202 5.35272 1.70202C5.38713 1.58201 5.51347 1.51198 5.63348 1.54639L6.04586 1.66464C6.16587 1.69905 6.2359 1.82539 6.20149 1.9454C6.16707 2.0654 6.04292 2.13606 5.92073 2.10102Z" fill="black" fill-opacity="0.07"/>
  <path d="M14.4696 4.55262L14.0572 4.43437C13.9372 4.39996 13.8671 4.27362 13.9015 4.15362C13.936 4.03361 14.0623 3.96358 14.1823 3.99799L14.5947 4.11624C14.7147 4.15065 14.7847 4.27699 14.7503 4.397C14.7159 4.517 14.5896 4.58703 14.4696 4.55262Z" fill="black" fill-opacity="0.07"/>
  <path d="M13.9268 10.1016L1.84331 6.63677C1.7233 6.60236 1.65327 6.47602 1.68768 6.35601C1.72209 6.236 1.84843 6.16597 1.96844 6.20038L14.0519 9.66526C14.1719 9.69967 14.242 9.82601 14.2076 9.94602C14.1731 10.066 14.0468 10.1361 13.9268 10.1016Z" fill="black" fill-opacity="0.07"/>
  <path d="M6.63288 12.735C6.51288 12.7006 6.44284 12.5743 6.47726 12.4543L8.98114 3.72222C9.01555 3.60221 9.14189 3.53218 9.26189 3.56659C9.3819 3.601 9.45193 3.72735 9.41752 3.84735L6.91301 12.5816C6.8786 12.7016 6.75289 12.7694 6.63288 12.735Z" fill="black" fill-opacity="0.07"/>
  <path d="M5.26734 6.3717C4.77422 6.2303 4.49005 5.71433 4.63083 5.2234C4.7716 4.73247 5.28819 4.44611 5.77913 4.58689C6.27006 4.72766 6.55641 5.24425 6.41564 5.73518C6.27487 6.22612 5.76045 6.51309 5.26734 6.3717ZM5.65462 5.02109C5.4037 4.94914 5.13979 5.09543 5.06784 5.34635C4.99526 5.59945 5.14217 5.86118 5.3931 5.93313C5.6462 6.00571 5.90793 5.85879 5.97988 5.60787C6.05183 5.35695 5.90554 5.09304 5.65462 5.02109Z" fill="black" fill-opacity="0.07"/>
  <path d="M6.08904 7.85418C5.96904 7.81977 5.89901 7.69342 5.93342 7.57342C6.08107 7.05849 5.78227 6.51943 5.26733 6.37178C4.7524 6.22412 4.21334 6.52292 4.06569 7.03786C4.03128 7.15786 3.90494 7.2279 3.78493 7.19348C3.66493 7.15907 3.59489 7.03273 3.6293 6.91273C3.84578 6.15778 4.63752 5.71892 5.39247 5.93539C6.14741 6.15187 6.58628 6.94361 6.3698 7.69855C6.33539 7.81856 6.20905 7.88859 6.08904 7.85418Z" fill="black" fill-opacity="0.07"/>
  <path d="M4.01539 10.7375C3.52227 10.5961 3.2381 10.0801 3.37887 9.58918C3.51964 9.09825 4.03624 8.8119 4.52717 8.95267C5.01811 9.09344 5.30446 9.61004 5.16369 10.101C5.02291 10.5919 4.5085 10.8789 4.01539 10.7375ZM4.40267 9.38687C4.15175 9.31492 3.88783 9.46121 3.81588 9.71213C3.74393 9.96305 3.89022 10.227 4.14114 10.2989C4.39425 10.3715 4.65598 10.2246 4.72793 9.97365C4.79988 9.72273 4.65359 9.45882 4.40267 9.38687Z" fill="black" fill-opacity="0.07"/>
  <path d="M4.83734 12.2204C4.71733 12.186 4.6473 12.0596 4.68171 11.9396C4.82936 11.4247 4.53056 10.8856 4.01563 10.738C3.50069 10.5903 2.96164 10.8891 2.81398 11.4041C2.77957 11.5241 2.65323 11.5941 2.53322 11.5597C2.41322 11.5253 2.34318 11.3989 2.3776 11.2789C2.59407 10.524 3.38581 10.0851 4.14076 10.3016C4.8957 10.5181 5.33457 11.3098 5.11809 12.0648C5.08306 12.1869 4.95734 12.2548 4.83734 12.2204Z" fill="black" fill-opacity="0.07"/>
  <path d="M11.3723 8.12243C10.8792 7.98103 10.595 7.46506 10.7358 6.97413C10.8766 6.4832 11.3932 6.19685 11.8841 6.33762C12.375 6.47839 12.6614 6.99499 12.5206 7.48592C12.3798 7.97685 11.8633 8.2632 11.3723 8.12243ZM11.7596 6.77182C11.5065 6.69924 11.2448 6.84616 11.1728 7.09708C11.1002 7.35018 11.2472 7.61191 11.4981 7.68386C11.749 7.75581 12.0129 7.60952 12.0849 7.3586C12.1568 7.10768 12.0105 6.84377 11.7596 6.77182Z" fill="black" fill-opacity="0.07"/>
  <path d="M12.194 9.6043C12.074 9.56989 12.004 9.44355 12.0384 9.32354C12.1861 8.80861 11.8872 8.26955 11.3723 8.1219C10.8574 7.97424 10.3183 8.27305 10.1707 8.78798C10.1363 8.90799 10.0099 8.97802 9.88991 8.94361C9.76991 8.9092 9.69987 8.78285 9.73428 8.66285C9.95076 7.9079 10.7425 7.46904 11.4974 7.68551C12.2524 7.90199 12.6913 8.69373 12.4748 9.44867C12.4404 9.56868 12.314 9.63871 12.194 9.6043Z" fill="black" fill-opacity="0.07"/>
  <path d="M10.1204 12.4885C9.62725 12.3471 9.34308 11.8312 9.48385 11.3402C9.62463 10.8493 10.1412 10.5629 10.6322 10.7037C11.1231 10.8445 11.4094 11.3611 11.2687 11.852C11.1279 12.3429 10.6113 12.6293 10.1204 12.4885ZM10.5076 11.1379C10.2545 11.0653 9.99281 11.2122 9.92086 11.4632C9.84891 11.7141 9.9952 11.978 10.2461 12.05C10.497 12.1219 10.761 11.9756 10.8329 11.7247C10.9049 11.4738 10.7586 11.2099 10.5076 11.1379Z" fill="black" fill-opacity="0.07"/>
  <path d="M10.9421 13.9708C10.8221 13.9364 10.752 13.8101 10.7864 13.6901C10.9341 13.1751 10.6353 12.6361 10.1204 12.4884C9.60543 12.3408 9.06637 12.6396 8.91872 13.1545C8.88431 13.2745 8.75796 13.3445 8.63796 13.3101C8.51795 13.2757 8.44792 13.1494 8.48233 13.0294C8.69881 12.2744 9.49055 11.8356 10.2455 12.052C11.0004 12.2685 11.4393 13.0602 11.2228 13.8152C11.1878 13.9374 11.0621 14.0052 10.9421 13.9708Z" fill="black" fill-opacity="0.07"/>
</svg>