<svg width="14" height="12" viewBox="0 0 14 12" fill="none" xmlns="http://www.w3.org/2000/svg">
  <path d="M13.0724 0H0.927569C0.416102 0 0 0.414512 0 0.923996V9.41358C0 9.92307 0.416102 10.3376 0.927569 10.3376H4.07428L3.41545 11.4639C3.35006 11.5757 3.34916 11.7085 3.41306 11.8193C3.47735 11.9308 3.59679 12 3.72474 12H10.2753C10.4032 12 10.5227 11.9308 10.5869 11.8193C10.6508 11.7085 10.6499 11.5756 10.5845 11.4638L9.92573 10.3376H13.0724C13.5839 10.3376 14 9.92307 14 9.41358V0.923996C14 0.414512 13.5839 0 13.0724 0ZM13.5608 0.923996V4.36957H9.19882C9.09539 3.33007 8.2631 2.50096 7.21961 2.39792V0.437537H13.0724C13.3417 0.437537 13.5608 0.655759 13.5608 0.923996ZM0.439216 4.80711H4.80118C4.90461 5.84662 5.7369 6.67572 6.78039 6.77876V8.73915H0.439216V4.80711ZM7 2.82452C7.97629 2.82452 8.77059 3.61578 8.77059 4.58834C8.77059 5.5609 7.97629 6.35216 7 6.35216C6.02371 6.35216 5.22941 5.5609 5.22941 4.58834C5.22941 3.61578 6.02371 2.82452 7 2.82452ZM7.21961 6.77876C8.2631 6.67572 9.09539 5.84662 9.19882 4.80711H13.5608V8.73915H7.21961V6.77876ZM0.927569 0.437537H6.78039V2.39792C5.7369 2.50096 4.90461 3.33007 4.80118 4.36957H0.439216V0.923996C0.439216 0.655759 0.658302 0.437537 0.927569 0.437537ZM10.1339 11.5625H3.86611L4.58264 10.3376H9.41739L10.1339 11.5625ZM13.0724 9.90007H0.927569C0.658302 9.90007 0.439216 9.68185 0.439216 9.41361V9.17668H13.5608V9.41361C13.5608 9.68185 13.3417 9.90007 13.0724 9.90007ZM9.28606 3.61474H11.5005C11.5846 3.61474 11.6655 3.5796 11.7226 3.51834C11.7797 3.45709 11.8088 3.37401 11.8025 3.29047C11.7646 2.78796 11.4597 2.3604 11.0336 2.14259C11.1729 1.98962 11.2579 1.78668 11.2579 1.56436C11.2579 1.08939 10.87 0.702958 10.3932 0.702958C9.91645 0.702958 9.52854 1.08939 9.52854 1.56436C9.52854 1.78668 9.61355 1.98962 9.75287 2.14259C9.32677 2.3604 9.02185 2.78799 8.98399 3.29047C8.97771 3.37404 9.00683 3.45712 9.06388 3.51837C9.12097 3.57963 9.20193 3.61474 9.28606 3.61474ZM9.96778 1.56433C9.96778 1.33063 10.1586 1.14047 10.3933 1.14047C10.6279 1.14047 10.8188 1.3306 10.8188 1.56433C10.8188 1.798 10.628 1.98809 10.3935 1.9882C10.3934 1.9882 10.3935 1.9882 10.3935 1.9882C10.3934 1.9882 10.3932 1.9882 10.3931 1.9882C10.1586 1.98811 9.96778 1.798 9.96778 1.56433ZM10.393 2.42573H10.3932C10.3932 2.42573 10.3934 2.42573 10.3935 2.42573C10.8499 2.42587 11.2413 2.74585 11.3421 3.1772H9.4444C9.54515 2.74585 9.93654 2.42587 10.393 2.42573ZM11.8025 7.90471C11.7646 7.4022 11.4597 6.97464 11.0336 6.75683C11.1729 6.60386 11.2579 6.40095 11.2579 6.1786C11.2579 5.70362 10.87 5.3172 10.3932 5.3172C9.91645 5.3172 9.52854 5.70362 9.52854 6.1786C9.52854 6.40092 9.61355 6.60386 9.75287 6.75683C9.32677 6.97464 9.02185 7.40223 8.98399 7.90471C8.97771 7.98828 9.0068 8.07133 9.06388 8.13258C9.12095 8.19384 9.2019 8.22898 9.28604 8.22898H11.5004C11.5845 8.22898 11.6655 8.19384 11.7226 8.13258C11.7797 8.07133 11.8088 7.98828 11.8025 7.90471ZM9.96778 6.1786C9.96778 5.94487 10.1586 5.75473 10.3933 5.75473C10.6279 5.75473 10.8188 5.94487 10.8188 6.1786C10.8188 6.4123 10.6279 6.60246 10.3933 6.60246C10.1586 6.60243 9.96778 6.4123 9.96778 6.1786ZM9.4444 7.79144C9.54517 7.35997 9.93671 7.03997 10.3932 7.03997C10.8498 7.03997 11.2413 7.35997 11.3421 7.79144H9.4444ZM2.49955 3.61474H4.71394C4.79807 3.61474 4.87906 3.57957 4.93613 3.51832C4.9932 3.45706 5.02229 3.37396 5.01598 3.29044C4.97813 2.78793 4.6732 2.36038 4.24711 2.14256C4.38642 1.98959 4.47144 1.78668 4.47144 1.56433C4.47144 1.08936 4.08353 0.702931 3.60673 0.702931C3.12993 0.702931 2.74202 1.08936 2.74202 1.56433C2.74202 1.78666 2.82704 1.98959 2.96635 2.14256C2.54029 2.36038 2.23533 2.78796 2.19748 3.29044C2.19119 3.37401 2.22035 3.45712 2.27739 3.51837C2.33449 3.57963 2.41544 3.61474 2.49955 3.61474ZM3.18127 1.56433C3.18127 1.33063 3.37213 1.14047 3.60676 1.14047C3.84135 1.14047 4.03225 1.3306 4.03225 1.56433C4.03225 1.798 3.84146 1.98809 3.60695 1.9882C3.60689 1.9882 3.60703 1.9882 3.60695 1.9882C3.60687 1.9882 3.60665 1.9882 3.60657 1.9882C3.37202 1.98811 3.18127 1.798 3.18127 1.56433ZM3.60646 2.42573H3.60673C3.60673 2.42573 3.60692 2.42573 3.607 2.42573C4.06343 2.42587 4.45483 2.74579 4.55557 3.1772H2.65789C2.75863 2.74585 3.15003 2.42587 3.60646 2.42573ZM4.24711 6.75683C4.38642 6.60386 4.47144 6.40095 4.47144 6.1786C4.47144 5.70362 4.08353 5.3172 3.60673 5.3172C3.12993 5.3172 2.74202 5.70362 2.74202 6.1786C2.74202 6.40092 2.82704 6.60386 2.96635 6.75683C2.54026 6.97464 2.23533 7.40223 2.19748 7.90471C2.19119 7.98828 2.22035 8.07135 2.27739 8.13261C2.33443 8.19384 2.41538 8.22898 2.49949 8.22898H4.71388C4.79802 8.22898 4.87903 8.19384 4.93607 8.13256C4.99311 8.07127 5.02221 7.98822 5.0159 7.90471C4.97813 7.4022 4.6732 6.97464 4.24711 6.75683ZM3.18127 6.1786C3.18127 5.94487 3.37213 5.75473 3.60676 5.75473C3.84135 5.75473 4.03225 5.94487 4.03225 6.1786C4.03225 6.4123 3.84138 6.60246 3.60676 6.60246C3.37213 6.60243 3.18127 6.4123 3.18127 6.1786ZM2.65789 7.79144C2.75866 7.35997 3.15019 7.03997 3.60676 7.03997C4.06327 7.03997 4.4548 7.35997 4.5556 7.79144H2.65789ZM6.38279 5.60936C6.4341 5.63887 6.49164 5.65361 6.5492 5.65361C6.6069 5.65361 6.66463 5.63879 6.71613 5.60917L7.9912 4.87586C8.09392 4.81679 8.15772 4.70659 8.15772 4.58829C8.15772 4.46999 8.09389 4.35984 7.9912 4.3008L6.71616 3.56751C6.61327 3.50834 6.48551 3.50823 6.38279 3.56732C6.28004 3.62639 6.21625 3.73662 6.21625 3.855V5.32171C6.21622 5.44006 6.28004 5.55029 6.38279 5.60936ZM6.65544 4.03781L7.61268 4.58834L6.65544 5.13887V4.03781Z" fill="#323232"/>
</svg>