<svg width="14" height="14" viewBox="0 0 14 14" fill="none" xmlns="http://www.w3.org/2000/svg">
  <path d="M8.96893 0H5.03189C4.65296 0 4.34473 0.308235 4.34473 0.68717V2.61288C4.34473 2.99181 4.65296 3.30005 5.03189 3.30005H5.49436V3.69228C5.49436 3.78655 5.55106 3.87172 5.63833 3.90788C5.66726 3.91978 5.69759 3.92562 5.72769 3.92562C5.78836 3.92562 5.84809 3.90182 5.89266 3.85725L6.45009 3.30005H8.96893C9.34786 3.30005 9.65609 2.99181 9.65609 2.61288V0.68717C9.65609 0.308235 9.34786 0 8.96893 0ZM9.18943 2.61288C9.18943 2.73444 9.09049 2.83338 8.96893 2.83338H6.35349C6.29143 2.83338 6.23216 2.85788 6.18853 2.90175L5.96103 3.12901V3.06671C5.96103 2.93791 5.85673 2.83338 5.72769 2.83338H5.03189C4.91033 2.83338 4.81139 2.73444 4.81139 2.61288V0.68717C4.81139 0.565602 4.91033 0.466669 5.03189 0.466669H8.96893C9.09049 0.466669 9.18943 0.565602 9.18943 0.68717V2.61288Z" fill="#323232"/>
  <path d="M7.75219 1.28582C7.75219 1.15702 7.64789 1.05249 7.51885 1.05249H5.53949C5.41045 1.05249 5.30615 1.15702 5.30615 1.28582C5.30615 1.41463 5.41045 1.51916 5.53949 1.51916H7.51885C7.64789 1.51916 7.75219 1.41463 7.75219 1.28582Z" fill="#323232"/>
  <path d="M8.37221 1.50294C8.40021 1.51461 8.43054 1.51927 8.46087 1.51927C8.49121 1.51927 8.52154 1.51461 8.54954 1.50294C8.57987 1.48894 8.60321 1.47261 8.62654 1.45161C8.64754 1.43061 8.66387 1.40494 8.67787 1.37461C8.68977 1.34661 8.69421 1.31627 8.69421 1.28594C8.69421 1.25561 8.68954 1.22527 8.67787 1.19727C8.66387 1.16927 8.64754 1.14361 8.62654 1.12261C8.60554 1.09927 8.57987 1.08294 8.54954 1.07127C8.49354 1.04794 8.42821 1.04794 8.37221 1.07127C8.34421 1.08294 8.31854 1.09927 8.29754 1.12261C8.27421 1.14361 8.25787 1.16927 8.24621 1.19727C8.23454 1.22527 8.22754 1.25561 8.22754 1.28594C8.22754 1.34661 8.25321 1.40727 8.29754 1.45161C8.31854 1.47261 8.34421 1.48894 8.37221 1.50294Z" fill="#323232"/>
  <path d="M8.46172 1.84674H6.48236C6.35332 1.84674 6.24902 1.95127 6.24902 2.08008C6.24902 2.20888 6.35332 2.31341 6.48236 2.31341H8.46172C8.59076 2.31341 8.69506 2.20888 8.69506 2.08008C8.69506 1.95127 8.59076 1.84674 8.46172 1.84674Z" fill="#323232"/>
  <path d="M5.70307 1.91553C5.64007 1.85019 5.53507 1.82919 5.45107 1.86419C5.42074 1.87586 5.39531 1.89219 5.37431 1.91553C5.35307 1.93653 5.33441 1.96219 5.32274 1.99019C5.31107 2.01819 5.30664 2.04853 5.30664 2.07886C5.30664 2.11153 5.31131 2.13953 5.32274 2.16986C5.33697 2.19786 5.35307 2.22353 5.37431 2.24453C5.39531 2.26553 5.42074 2.28419 5.45107 2.29586C5.47907 2.30753 5.50941 2.3122 5.53997 2.3122C5.60064 2.3122 5.66131 2.28886 5.70307 2.24453C5.72664 2.22353 5.74274 2.19786 5.75464 2.16986C5.76631 2.13953 5.77331 2.11153 5.77331 2.07886C5.77331 2.04853 5.76631 2.01819 5.75464 1.99019C5.74274 1.96219 5.72664 1.93653 5.70307 1.91553Z" fill="#323232"/>
  <path d="M2.94992 2.75458C1.92628 2.75458 1.09375 3.58735 1.09375 4.61075C1.09375 5.63416 1.92628 6.46693 2.94992 6.46693C3.97355 6.46693 4.80585 5.63439 4.80585 4.61075C4.80585 3.58711 3.97332 2.75458 2.94992 2.75458ZM2.94992 6.00026C2.18388 6.00026 1.56042 5.37702 1.56042 4.61075C1.56042 3.84448 2.18388 3.22125 2.94992 3.22125C3.71595 3.22125 4.33918 3.84448 4.33918 4.61075C4.33918 5.37702 3.71595 6.00026 2.94992 6.00026Z" fill="#323232"/>
  <path d="M11.4558 6.46656C12.4794 6.46656 13.3119 5.63402 13.3119 4.61039C13.3119 3.58675 12.4794 2.75421 11.4558 2.75421C10.4321 2.75421 9.59961 3.58698 9.59961 4.61039C9.59961 5.63379 10.4321 6.46656 11.4558 6.46656ZM11.4558 3.22088C12.2218 3.22088 12.8453 3.84412 12.8453 4.61039C12.8453 5.37666 12.2218 5.99989 11.4558 5.99989C10.6897 5.99989 10.0663 5.37666 10.0663 4.61039C10.0663 3.84412 10.6897 3.22088 11.4558 3.22088Z" fill="#323232"/>
  <path d="M13.7671 11.4142H13.6647V8.19252C13.6647 7.54455 13.1374 7.01721 12.4894 7.01721H10.4235C9.7734 7.01721 9.24443 7.54455 9.24443 8.19252V10.2421H8.31763C7.86567 10.2421 7.49817 10.6096 7.49817 11.0616C7.49817 11.1883 7.52943 11.3071 7.58123 11.4144H6.82407C6.87563 11.3071 6.90713 11.1885 6.90713 11.0616C6.90713 10.6096 6.53963 10.2421 6.08767 10.2421H5.16087V8.19252C5.16087 7.54455 4.6319 7.01721 3.98183 7.01721H1.9159C1.26793 7.01721 0.7406 7.54455 0.7406 8.19252V11.4142H0.233333C0.1043 11.4142 0 11.5187 0 11.6475V12.7866C0 12.9154 0.1043 13.02 0.233333 13.02H13.7667C13.8957 13.02 14 12.9154 14 12.7866V11.6475C14 11.5187 13.8957 11.4142 13.7667 11.4142H13.7671ZM9.7111 8.19252C9.7111 7.80168 10.0305 7.48388 10.4235 7.48388H12.4894C12.8802 7.48388 13.198 7.80168 13.198 8.19252V11.4142H11.3048C11.3129 11.3971 11.3223 11.3813 11.3293 11.3638L12.2934 8.93452C12.3744 8.73105 12.3709 8.50822 12.2843 8.30732C12.1975 8.10642 12.0374 7.95125 11.834 7.87052C11.414 7.70438 10.9363 7.91018 10.77 8.32995L10.0112 10.2421H9.7111V8.19252ZM7.96507 11.0614C7.96507 10.867 8.12327 10.7086 8.31787 10.7086H9.4724C9.4745 10.7086 9.47613 10.7097 9.478 10.7097C9.47987 10.7097 9.48173 10.7086 9.4836 10.7086H10.1698C10.2655 10.7086 10.3514 10.6502 10.3868 10.5613L11.2042 8.50168C11.2758 8.32085 11.4821 8.23242 11.6622 8.30405C11.75 8.33858 11.8186 8.40555 11.8559 8.49188C11.8932 8.57845 11.8946 8.67435 11.8599 8.76209L10.8957 11.1916C10.8423 11.3269 10.7135 11.4142 10.5679 11.4142H8.3181C8.1235 11.4142 7.96507 11.256 7.96507 11.0614ZM6.4407 11.0614C6.4407 11.2557 6.2825 11.4142 6.0879 11.4142H3.8381C3.6925 11.4142 3.5637 11.3267 3.51027 11.1916L2.5459 8.76209C2.51113 8.67459 2.51253 8.57845 2.5501 8.49212C2.58743 8.40555 2.65603 8.33882 2.74353 8.30405C2.78623 8.28725 2.82987 8.27932 2.87327 8.27932C3.01397 8.27932 3.14697 8.36378 3.2018 8.50192L4.01917 10.5616C4.0544 10.6505 4.1405 10.7088 4.23617 10.7088H4.9224C4.9245 10.7088 4.92613 10.71 4.928 10.71C4.92987 10.71 4.93173 10.7088 4.9336 10.7088H6.08813C6.28273 10.7088 6.44093 10.867 6.44093 11.0616L6.4407 11.0614ZM1.20773 8.19252C1.20773 7.80168 1.52553 7.48388 1.91637 7.48388H3.9823C4.37523 7.48388 4.69467 7.80168 4.69467 8.19252V10.2421H4.3946L3.6358 8.32972C3.46897 7.91018 2.9925 7.70415 2.57157 7.87028C2.36833 7.95102 2.20827 8.10618 2.12147 8.30708C2.0349 8.50798 2.0314 8.73082 2.11213 8.93429L3.0765 11.3638C3.0835 11.3813 3.09283 11.3971 3.101 11.4142H1.20773V8.19252ZM13.5338 12.5533H0.467133V11.8808H0.9737H0.974167H0.974633H13.4304H13.4309H13.4314H13.5333V12.5533H13.5338Z" fill="#323232"/>
</svg>