<svg width="14" height="14" viewBox="0 0 14 14" fill="none" xmlns="http://www.w3.org/2000/svg">
<path d="M4.63139 1.43148C4.46736 1.59557 4.37521 1.81809 4.37521 2.05011C4.37521 2.28212 4.46736 2.50464 4.63139 2.66873L8.96264 6.99998L4.63139 11.3312C4.47201 11.4963 4.38381 11.7173 4.3858 11.9467C4.3878 12.1761 4.47982 12.3956 4.64205 12.5578C4.80428 12.7201 5.02375 12.8121 5.25317 12.8141C5.48259 12.8161 5.70362 12.7279 5.86864 12.5685L10.8185 7.61861C10.9826 7.45452 11.0747 7.232 11.0747 6.99998C11.0747 6.76796 10.9826 6.54544 10.8185 6.38136L5.86864 1.43148C5.70456 1.26744 5.48204 1.17529 5.25002 1.17529C5.018 1.17529 4.79548 1.26744 4.63139 1.43148Z" fill="white"/>
</svg>