<svg width="19" height="16" viewBox="0 0 19 16" fill="none" xmlns="http://www.w3.org/2000/svg">
  <path fill-rule="evenodd" clip-rule="evenodd" d="M7.40511 11.0635V4.42527L12.2146 7.74459L7.40511 11.0635ZM18.1259 2.41845C17.913 1.46659 17.2857 0.71672 16.4892 0.462271C15.0455 0 9.25631 0 9.25631 0C9.25631 0 3.46727 0 2.02355 0.462271C1.22702 0.71672 0.599796 1.46659 0.386911 2.41845C0 4.14423 0 7.7444 0 7.7444C0 7.7444 0 11.3448 0.386911 13.0704C0.599796 14.0222 1.22702 14.7723 2.02355 15.0265C3.46727 15.489 9.25631 15.489 9.25631 15.489C9.25631 15.489 15.0455 15.489 16.4892 15.0265C17.2857 14.7723 17.913 14.0222 18.1259 13.0704C18.5128 11.3448 18.5128 7.7444 18.5128 7.7444C18.5128 7.7444 18.5128 4.14423 18.1259 2.41845Z" fill="#E43955"/>
</svg>